<?xml version="1.0" encoding="UTF-8" standalone="no"?>
<svg
   version="1.0"
   width="700pt"
   height="700pt"
   viewBox="0 0 700 700"
   preserveAspectRatio="xMidYMid"
   id="svg2631"
   sodipodi:docname="favicon.svg"
   inkscape:version="1.4.3 (0d15f75042, 2025-12-25)"
   xmlns:inkscape="http://www.inkscape.org/namespaces/inkscape"
   xmlns:sodipodi="http://sodipodi.sourceforge.net/DTD/sodipodi-0.dtd"
   xmlns:xlink="http://www.w3.org/1999/xlink"
   xmlns="http://www.w3.org/2000/svg"
   xmlns:svg="http://www.w3.org/2000/svg">
  <defs
     id="defs2631">
    <linearGradient
       id="linearGradient2637"
       inkscape:collect="always">
      <stop
         style="stop-color:#f7be82;stop-opacity:1;"
         offset="0"
         id="stop2638" />
      <stop
         style="stop-color:#a26122;stop-opacity:1;"
         offset="1"
         id="stop2639" />
    </linearGradient>
    <inkscape:path-effect
       effect="mirror_symmetry"
       start_point="397.7334,164.97036"
       end_point="397.7334,272.65733"
       center_point="397.7334,218.81385"
       id="path-effect2632"
       is_visible="true"
       lpeversion="1.2"
       lpesatellites=""
       mode="free"
       discard_orig_path="false"
       fuse_paths="false"
       oposite_fuse="false"
       split_items="false"
       split_open="false"
       link_styles="false" />
    <radialGradient
       inkscape:collect="always"
       xlink:href="#linearGradient2637"
       id="radialGradient2639"
       cx="350"
       cy="350"
       fx="350"
       fy="350"
       r="350"
       gradientUnits="userSpaceOnUse" />
  </defs>
  <sodipodi:namedview
     id="namedview2631"
     pagecolor="#505050"
     bordercolor="#ffffff"
     borderopacity="1"
     inkscape:showpageshadow="0"
     inkscape:pageopacity="0"
     inkscape:pagecheckerboard="1"
     inkscape:deskcolor="#505050"
     inkscape:document-units="pt"
     inkscape:zoom="0.57100881"
     inkscape:cx="314.35592"
     inkscape:cy="422.06004"
     inkscape:window-width="1920"
     inkscape:window-height="1011"
     inkscape:window-x="0"
     inkscape:window-y="0"
     inkscape:window-maximized="1"
     inkscape:current-layer="svg2631" />
  <circle
     style="fill:url(#radialGradient2639);stroke:none;stroke-width:4.05;stroke-linecap:round;stroke-dasharray:none;stroke-opacity:1"
     id="path2633"
     cx="350"
     cy="350"
     r="350" />
  <g
     transform="matrix(0.0647022,0,0,-0.0647022,40.132639,644.7999)"
     fill="#000000"
     stroke="none"
     id="g2631"
     style="display:inline">
    <g
       id="g2632"
       inkscape:label="cup"
       transform="matrix(14.868083,-1.9844032,-1.9844032,-14.868083,-4092.6987,9928.1408)"
       inkscape:path-effect="#path-effect2632">
      <path
         style="fill:#000000;stroke-width:0.75"
         d="m 397.7334,197.46336 h -49.05149 l 21.92703,42.29594 c 0,0 21.01677,-0.0958 21.80907,5.06865 0.7923,5.16447 2.22794,17.4109 -0.104,20.24005 -2.33195,2.82916 -6.72427,3.38352 -6.72427,3.38352 l -10.45603,0.47203 -2.1557,3.73378 h 24.75539 m 0,-75.19397 h 49.05149 l -21.92703,42.29594 c 0,0 -21.01677,-0.0958 -21.80907,5.06865 -0.7923,5.16447 -2.22794,17.4109 0.104,20.24005 2.33195,2.82916 6.72427,3.38352 6.72427,3.38352 l 10.45603,0.47203 2.1557,3.73378 H 397.7334"
         id="path2631"
         sodipodi:nodetypes="cccsscccc"
         inkscape:original-d="m 397.7334,197.46336 h -49.05149 l 21.92703,42.29594 c 0,0 21.01677,-0.0958 21.80907,5.06865 0.7923,5.16447 2.22794,17.4109 -0.104,20.24005 -2.33195,2.82916 -6.72427,3.38352 -6.72427,3.38352 l -10.45603,0.47203 -2.1557,3.73378 h 24.75539" />
      <path
         style="fill:none;stroke:#000000;stroke-width:4.05;stroke-linecap:round;stroke-dasharray:none;stroke-opacity:1"
         d="m 353.90748,200.23932 c -3.8583,-0.24628 -5.22557,-2.77596 -5.22557,-2.77596 0,0 -2.98516,-22.94853 3.98054,-28.98548 6.9657,-6.03694 -11.79056,-3.25291 -15.38256,0.6722 -3.592,3.92511 -7.16104,30.11971 4.61674,46.29972 6.78528,9.8636 13.99434,24.07731 28.71231,24.3095 0,0 16.49368,-1.03323 21.80907,5.06865 5.31539,6.10188 0.55012,-7.09936 0.55012,-7.09936 m 48.59119,-37.48927 c 3.8583,-0.24628 5.22557,-2.77596 5.22557,-2.77596 0,0 2.98516,-22.94853 -3.98054,-28.98548 -6.9657,-6.03694 11.79056,-3.25291 15.38256,0.6722 3.592,3.92511 7.16104,30.11971 -4.61674,46.29972 -6.78528,9.8636 -13.99434,24.07731 -28.71231,24.3095 0,0 -16.49368,-1.03323 -21.80907,5.06865 -5.31539,6.10188 -0.55012,-7.09936 -0.55012,-7.09936"
         id="path2632"
         sodipodi:nodetypes="csssccsc"
         inkscape:original-d="m 353.90748,200.23932 c -3.8583,-0.24628 -5.22557,-2.77596 -5.22557,-2.77596 0,0 -2.98516,-22.94853 3.98054,-28.98548 6.9657,-6.03694 -11.79056,-3.25291 -15.38256,0.6722 -3.592,3.92511 -7.16104,30.11971 4.61674,46.29972 6.78528,9.8636 13.99434,24.07731 28.71231,24.3095 0,0 16.49368,-1.03323 21.80907,5.06865 5.31539,6.10188 0.55012,-7.09936 0.55012,-7.09936" />
    </g>
    <path
       d="m 5708,9405 c -6,-8 -4,-23 2,-34 6,-10 12,-28 12,-40 1,-28 38,-39 38,-11 0,12 8,25 18,28 22,8 5,37 -33,57 -19,10 -31,10 -37,0 z"
       id="path419" />
    <path
       d="m 5820,9407 c 0,-27 18,-62 33,-62 21,0 8,64 -14,71 -11,4 -19,0 -19,-9 z"
       id="path420" />
    <path
       d="m 5929,9359 c -4,-17 -16,-27 -28,-23 -68,26 -37,-70 38,-118 79,-49 196,-165 196,-193 0,-12 20,-33 45,-45 25,-13 45,-17 45,-10 0,6 -10,16 -22,20 -13,5 -23,17 -23,26 0,10 9,14 21,9 20,-8 52,162 33,181 -5,5 -42,1 -84,-7 -55,-11 -72,-10 -62,2 26,34 29,97 4,102 -52,11 -111,-7 -118,-36 -10,-35 -40,-27 -46,13 -5,35 41,62 116,68 91,8 74,42 -22,42 -73,0 -86,-4 -93,-31 z"
       id="path428"
       sodipodi:nodetypes="cccscscscsccccccsc" />
    <path
       d="m 6141,9373 c -3,-6 1,-16 10,-21 10,-6 13,-30 8,-59 -9,-45 -6,-48 47,-62 50,-12 57,-20 61,-64 5,-45 9,-49 44,-43 59,12 143,-29 132,-63 -12,-37 5,-46 88,-50 56,-2 69,-8 72,-33 3,-21 21,-35 61,-44 31,-8 56,-20 56,-26 0,-7 9,-9 21,-4 12,5 23,-5 28,-25 7,-26 19,-31 66,-28 91,5 95,3 95,-53 0,-37 7,-53 23,-53 54,0 18,88 -57,139 -15,10 -30,46 -35,79 l -8,60 53,-57 c 30,-30 55,-51 56,-45 6,42 -9,91 -37,118 -18,18 -43,48 -55,67 -71,112 -142,150 -192,103 -27,-25 -33,-26 -33,-6 0,46 -45,112 -76,112 -17,0 -44,7 -60,16 -20,10 -29,10 -29,0 0,-28 -33,-17 -41,14 -9,34 -20,38 -45,13 -13,-13 -24,-13 -37,-2 -23,19 -206,33 -216,17 z"
       id="path429"
       sodipodi:nodetypes="ccccccccccssccssccccccccsscscscc" />
    <path
       d="m 5643,9342 c 10,-28 42,-32 42,-6 0,13 -11,24 -24,24 -13,0 -21,-8 -18,-18 z"
       id="path444" />
    <path
       d="m 5785,9290 c -6,-6 -37,-9 -68,-7 -67,5 -94,-20 -76,-69 16,-42 48,-43 114,-3 41,26 55,28 73,13 40,-33 44,1 5,39 -20,21 -42,33 -48,27 z"
       id="path465" />
    <path
       d="m 5764,9154 c -46,-52 -43,-60 21,-67 40,-5 63,1 83,21 28,28 37,50 14,36 -7,-5 -25,5 -40,21 -33,37 -37,37 -78,-11 z"
       id="path500" />
    <path
       d="m 5905,9173 c 4,-13 16,-23 25,-23 27,-1 75,-46 127,-119 57,-78 63,-110 11,-61 -21,19 -38,42 -38,50 0,19 -78,85 -100,85 -41,0 -43,-44 -3,-50 36,-6 59,-27 48,-44 -6,-10 -1,-13 16,-6 37,14 48,-31 19,-80 -14,-23 -25,-46 -25,-50 0,-14 68,10 109,38 41,29 42,29 112,-5 38,-18 61,-36 50,-40 -10,-4 -36,3 -56,14 -34,17 -40,16 -59,-9 -49,-67 34,-133 86,-69 16,19 32,32 37,27 16,-16 -14,-88 -49,-116 -27,-21 -35,-37 -28,-59 14,-44 -20,-39 -36,4 -8,20 -24,40 -37,45 -13,5 -24,25 -24,45 0,47 -25,66 -90,73 -51,4 -52,6 -48,60 l 5,56 -57,-3 c -52,-3 -57,0 -70,44 -11,39 -23,49 -68,58 -73,13 -94,33 -83,76 7,27 3,36 -15,36 -13,0 -24,-8 -24,-17 0,-9 -13,-13 -30,-9 -16,5 -30,1 -30,-7 0,-10 -8,-9 -21,1 -21,18 -64,8 -95,-22 -10,-10 -26,-21 -35,-24 -9,-3 -17,-30 -18,-60 -1,-40 -10,-57 -29,-62 -37,-10 -34,-38 7,-55 18,-7 25,-14 14,-14 -15,-1 -18,-14 -10,-50 17,-77 27,-82 165,-79 70,1 127,-4 127,-10 0,-7 17,-8 38,-3 20,5 46,2 57,-7 10,-8 47,-20 81,-26 45,-7 77,-26 120,-71 93,-97 232,-135 300,-81 29,22 23,78 -11,109 -38,34 -39,58 -1,48 19,-5 38,6 59,35 21,28 48,44 80,47 l 50,5 -83,43 c -45,23 -94,52 -107,64 -14,12 -34,24 -45,26 -54,9 -120,61 -164,129 -27,41 -72,89 -100,105 -61,36 -66,37 -54,8 z"
       id="path501"
       sodipodi:nodetypes="ccccssccccsccccccscscsscccccccsscsccsccccccsccccccsccccccccc" />
    <path
       d="m 6309,9064 c -6,-6 -22,-11 -35,-11 -13,0 -27,-9 -30,-19 -9,-27 68,-18 78,9 10,25 3,37 -13,21 z"
       id="path541" />
    <path
       d="m 6363,9046 c 13,-22 22,-25 30,-12 19,30 14,41 -18,41 -26,0 -28,-4 -12,-29 z"
       id="path542" />
    <path
       d="m 5880,9025 c 0,-14 12,-25 26,-25 15,0 20,5 12,12 -9,6 -21,17 -27,24 -6,8 -11,3 -11,-11 z"
       id="path550" />
    <path
       d="m 6279,8992 c -6,-15 4,-35 25,-53 121,-102 221,-142 221,-89 0,17 8,44 18,60 25,39 6,55 -82,64 -67,7 -71,5 -71,-28 0,-20 -8,-36 -17,-36 -10,0 -14,18 -10,46 6,35 2,43 -15,37 -12,-5 -30,-1 -41,7 -13,11 -21,9 -28,-8 z"
       id="path565" />
    <path
       d="m 6571,8866 c -9,-16 -16,-41 -16,-56 1,-35 188,-155 243,-155 22,0 50,-4 63,-9 18,-7 24,0 24,26 0,20 6,45 14,57 13,20 -9,91 -28,91 -61,-1 -123,-36 -131,-76 -9,-47 -35,-46 -35,2 0,16 -7,29 -15,29 -8,0 -15,16 -15,36 0,29 6,35 30,28 21,-5 30,0 30,17 0,15 -13,24 -34,25 -18,1 -52,4 -74,8 -29,5 -45,-1 -56,-23 z"
       id="path601" />
    <path
       d="m 6506,8757 c 56,-59 64,-123 25,-215 -16,-38 -20,-75 -14,-111 6,-29 12,-85 13,-124 2,-54 12,-80 43,-113 44,-46 70,-129 45,-145 -10,-6 -8,-25 7,-55 13,-25 19,-55 15,-66 -9,-23 30,-113 49,-113 6,0 20,-18 30,-41 27,-60 43,-20 54,133 7,111 41,247 66,268 27,23 57,98 33,84 -32,-20 -30,59 2,94 l 34,36 -34,-17 c -30,-16 -40,-11 -94,43 -72,72 -67,71 -90,15 -10,-25 -24,-45 -30,-45 -26,0 -120,106 -120,136 v 32 l 31,-35 c 17,-20 27,-27 22,-17 -6,12 2,19 23,19 25,0 31,-7 25,-30 -5,-18 -1,-30 11,-30 30,0 68,52 68,92 0,20 8,45 17,54 14,14 9,21 -18,32 -20,7 -67,40 -104,72 -37,32 -88,67 -112,78 l -45,19 z m 195,-144 c 4,-10 -3,-18 -14,-18 -26,0 -87,42 -87,61 0,19 94,-20 101,-43 z"
       id="path626"
       sodipodi:nodetypes="ccccccccscccccccscssccsscssscsccccssc" />
    <path
       d="m 6346,8716 c -27,-50 -20,-106 14,-106 45,0 37,-22 -30,-79 -60,-52 -60,-52 -62,-163 -2,-160 -3,-158 53,-192 74,-46 92,-101 70,-215 -32,-174 -33,-176 -63,-176 -15,0 -28,-10 -28,-24 0,-13 -10,-33 -21,-44 -12,-12 -24,-27 -26,-34 -3,-8 -24,-18 -47,-24 -42,-10 -42,-9 -35,54 4,36 11,102 16,147 5,45 2,130 -6,187 -9,67 -10,110 0,120 9,9 14,5 14,-11 0,-29 30,-36 30,-7 1,10 11,6 23,-11 31,-41 31,-263 1,-263 -24,0 -36,-29 -40,-97 -4,-70 0,-86 16,-76 7,5 10,30 5,56 -9,41 -6,46 18,37 31,-13 51,11 52,61 0,20 9,34 23,34 22,0 31,57 25,155 -4,50 -44,115 -72,115 -33,0 -51,52 -51,146 0,55 -8,99 -22,117 -20,27 -21,21 -13,-63 8,-83 5,-100 -30,-160 -35,-59 -38,-74 -23,-110 23,-58 23,-300 0,-368 -18,-54 -17,-58 32,-107 52,-52 81,-145 62,-196 -20,-53 39,-159 89,-159 13,0 28,-7 33,-16 5,-8 22,-11 38,-6 18,6 34,-2 47,-22 20,-33 93,-43 110,-16 5,9 20,14 34,12 30,-5 45,79 38,206 -3,66 2,85 25,101 27,19 57,105 67,196 4,32 -3,45 -29,55 -44,17 -98,104 -98,160 0,24 -9,57 -20,73 -11,16 -20,58 -22,94 -1,37 -14,81 -31,106 -24,32 -28,53 -19,93 15,67 7,96 -21,73 -31,-25 -77,-3 -111,53 -37,59 -30,83 38,135 61,47 74,128 21,128 -18,0 -30,-10 -30,-25 0,-20 -4,-22 -18,-8 -14,14 -10,26 18,55 35,38 35,38 3,38 -18,0 -39,-13 -47,-29 z m -16,-701 c 0,-48 -5,-65 -19,-61 -10,4 -16,17 -13,28 3,11 6,42 6,68 3,74 26,42 26,-35 z"
       id="path643"
       sodipodi:nodetypes="csccccsssccsscssccscccccscsscccccscscccccccccssccccccssscscscscs" />
    <path
       d="m 6464,8708 c 49,-51 33,-127 -39,-186 l -53,-44 31,-31 c 44,-44 62,-40 62,11 0,24 13,73 29,110 32,71 27,127 -13,158 -41,32 -52,20 -17,-18 z"
       id="path644" />
    <path
       d="m 6975,8704 c -59,-11 -76,-52 -40,-101 23,-31 85,-9 85,30 0,13 10,27 23,32 12,4 22,18 22,29 0,21 -19,23 -90,10 z"
       id="path658" />
    <path
       d="m 5724,8687 c -5,-7 -51,-11 -102,-8 -95,5 -136,-10 -122,-48 5,-11 2,-21 -5,-21 -7,0 -14,-73 -15,-161 -1,-89 -10,-192 -20,-229 -34,-130 -37,-171 -9,-160 18,7 24,2 21,-16 -3,-15 7,-28 23,-31 22,-5 26,1 18,26 -8,26 -4,31 28,31 40,0 53,-22 20,-34 -10,-4 -14,-12 -9,-17 13,-15 61,36 53,56 -3,10 -21,16 -39,14 -21,-3 -31,3 -27,15 9,28 66,31 103,5 24,-17 39,-19 53,-7 14,12 26,9 44,-9 19,-19 28,-21 37,-7 8,14 19,12 46,-7 43,-29 88,-31 88,-3 0,23 32,39 79,39 97,0 161,104 161,260 v 84 l -64,30 c -52,24 -64,25 -68,7 -6,-25 -53,-28 -94,-5 -94,50 -301,16 -341,-56 -15,-26 -48,-16 -48,15 0,70 273,143 389,103 56,-20 60,0 9,45 -21,18 -38,40 -38,48 0,9 -27,18 -61,19 -33,1 -69,10 -81,19 -12,11 -24,12 -29,3 z m 164,-283 c 81,-67 81,-68 11,-110 -96,-57 -310,-53 -262,5 9,10 18,41 21,69 12,103 128,122 230,36 z"
       id="path662"
       sodipodi:nodetypes="cccsccccccsccccccssccssscccccsccscccccccc" />
    <path
       id="path663"
       d="m 5776.8556,8409.2295 c -50.657,1.3213 -99.426,-50.9267 -89.1061,-91.2075 6.7358,-26.2911 35.3707,-59.6457 38.8355,-62.0917 14.9676,-10.5662 55.4821,-12.6248 69.8289,-9.8427 26.1497,5.0712 70.4578,64.6154 53.3947,107.5333 -19.3645,39.5155 -46.4185,54.9164 -72.953,55.6086 z m -3.1782,-25.0345 c 17.0765,-0.013 45.7743,-31.9105 49.8116,-45.5208 -2.7817,-13.3299 -27.4609,-62.1801 -41.1451,-69.4896 -17.1011,0 -78.6322,21.6988 -69.033,64.2346 0.014,15.9573 43.2777,50.7809 60.3665,50.7758 z"
       sodipodi:nodetypes="sssscsccccc"
       style="stroke-width:1.38097" />
    <path
       d="m 5778.747,8375.8417 c -8.7775,-9.9348 -17.5549,-28.1486 -17.5549,-41.395 0,-16.5581 12.2884,-14.9023 31.5987,3.3116 17.5548,16.558 24.5768,34.7719 17.5548,41.3951 -8.7774,8.279 -21.0658,6.6232 -31.5986,-3.3117 z"
       id="path664"
       style="stroke-width:1.70492" />
    <path
       d="m 7057,8629 c -30,-21 -27,-113 3,-97 17,10 35,9 52,-2 40,-25 45,-7 16,54 -26,55 -42,65 -71,45 z"
       id="path680" />
    <path
       d="m 6818,8596 c 17,-7 40,-24 51,-37 11,-14 40,-23 67,-22 35,2 38,4 13,9 -19,3 -34,15 -34,26 0,24 -34,38 -87,37 -36,-1 -37,-2 -10,-13 z"
       id="path689" />
    <path
       d="m 6768,8562 c -27,-27 -22,-46 27,-114 l 45,-62 38,39 39,39 -56,58 c -63,64 -67,66 -93,40 z"
       id="path698" />
    <path
       d="m 6945,8478 c 0,-7 9,-25 21,-40 22,-31 8,-110 -30,-165 -27,-39 -26,-53 2,-53 13,0 20,-7 15,-15 -6,-8 -3,-15 6,-15 21,0 20,20 0,40 -12,12 -12,19 0,27 9,5 24,-8 34,-29 9,-22 26,-36 36,-32 19,7 20,-27 1,-46 -19,-19 -10,-96 13,-105 31,-12 67,22 67,63 0,19 10,45 23,57 27,28 30,153 3,170 -10,7 -39,19 -63,28 -41,14 -45,21 -42,71 3,53 1,56 -41,56 -25,0 -45,-5 -45,-12 z"
       id="path734" />
    <path
       d="m 7185,8167 c 0,-32 -78,-176 -107,-198 -14,-10 -29,-35 -34,-56 -5,-20 -26,-61 -46,-91 -20,-29 -40,-75 -45,-101 -14,-69 -38,-130 -77,-193 -23,-36 -37,-89 -43,-158 -8,-104 -28,-174 -61,-215 -47,-59 -66,-290 -27,-332 30,-34 18,-54 -14,-22 -21,22 -71,-41 -71,-89 0,-5 -17,-30 -37,-55 -24,-27 -38,-63 -38,-93 0,-140 -119,-384 -185,-378 -36,4 -93,-44 -69,-59 7,-5 14,-1 14,8 0,9 6,13 13,8 16,-9 63,13 131,62 25,18 65,38 89,44 58,14 191,82 206,105 6,10 34,22 62,27 49,9 52,14 82,124 17,63 50,141 73,173 71,100 92,138 93,172 4,128 58,222 226,396 97,101 162,180 157,192 -5,13 0,17 14,12 72,-27 105,159 43,242 -38,52 -56,51 -97,-6 -19,-26 -63,-84 -97,-129 -58,-76 -110,-193 -110,-246 0,-32 -52,-128 -92,-170 -58,-60 -88,-111 -88,-152 0,-21 -6,-44 -13,-52 -7,-8 -24,-53 -39,-101 -14,-47 -31,-89 -38,-93 -22,-14 -75,-129 -91,-198 -22,-100 -116,-223 -146,-193 -4,4 3,20 17,35 14,15 25,34 25,41 0,6 10,23 22,37 13,14 31,65 40,114 11,55 34,110 61,143 35,46 117,257 117,303 0,7 20,43 45,80 25,36 45,73 45,81 0,8 6,14 13,14 30,0 98,112 95,155 -20.2533,243.0401 265.195,265.5837 220,478 -28,130 -46,144 -88,68 -19,-35 -39,-67 -44,-71 -35,-30 -142,-175 -173,-233 -21,-39 -45,-80 -54,-90 -19,-24 -22,-65 -6,-103 10,-24 7,-27 -13,-20 -21,8 -25,0 -25,-46 0,-37 -23,-98 -69,-183 -51,-95 -66,-138 -60,-169 8,-41 -60,-274 -92,-315 -30,-38 -52,-90 -58,-142 -4,-30 -17,-75 -28,-100 -12,-26 -20,-60 -19,-76 2,-19 -4,-29 -16,-26 -11,2 -33,-12 -48,-30 -38,-48 -55,-23 -20,28 45,67 75,142 95,238 21,98 70,217 90,217 18,0 62,160 59,216 -4,79 0,93 39,150 51,76 97,219 97,303 0,54 8,77 35,102 19,18 39,42 45,54 6,13 27,52 48,89 20,36 37,73 37,82 1,9 34,49 75,90 41,40 75,85 75,101 0,15 7,28 15,28 23,0 18,44 -8,70 -13,13 -19,35 -14,51 6,20 -4,34 -36,51 -57,29 -77,29 -77,0 z"
       id="path830"
       sodipodi:nodetypes="scccccccccscsccsccccccccccccccscsscccssscccscssccccccccsccccccccccsccscccccsssccs" />
    <path
       d="m 6839,8091 c -23,-61 -24.0039,-286.2981 1.9961,-327.2981 2.3836,-24.6902 -5.7345,-39.1309 -7.3882,-50.6235 -7.32,-50.8715 2.1762,-23.6747 -66.6079,-63.0784 -20.825,-11.9298 -61,-111 -42,-125 13,-9 13,-14 -1,-20 -24,-10 -25,-76 0,-84 11,-4 2,-21 -25,-46 -24,-22 -36,-40 -28,-40 20,0 16,-103 -5,-117 -31,-21 -36,-65 -10,-104 25,-38 25,-40 0,-30 -14,6 -26,4 -26,-4 0,-8 -9,-15 -20,-15 -23,0 -55,-133 -55,-227 0,-32 -13,-86 -29,-121 -15,-36 -36,-95 -46,-132 -9,-37 -23,-88 -31,-114 -8,-25 -14,-60 -14,-77 0,-18 -7,-36 -15,-41 -8,-6 -15,-29 -15,-53 0,-32 -6,-42 -21,-36 -13,5 -29,-6 -39,-27 -15,-32 -15,-32 6,-7 12,16 29,24 37,19 15,-10 77,46 77,69 0,7 14,32 31,56 21,27 38,88 51,172 10,71 29,141 41,156 12,14 37,51 55,81 l 34,56 -50,46 c -27,25 -38,41 -23,36 14,-5 26,-15 26,-23 0,-8 13,-7 30,2 32,17 28,85 -6,109 -11,7 -11,11 2,11 11,0 19,7 19,15 0,8 17,51 37,96 21,45 34,92 29,105 -6,16 -1,24 15,24 13,0 24,12 25,26 1,15 2,74 4,132 2,92 7,109 44,145 27,27 41,56 41,86 0,25 6,46 14,46 21,0 35,57 37,150 1,67 6,82 26,78 14,-2 29,7 34,20 5,13 16,20 24,15 8,-6 15,0 15,12 0,13 8,25 18,28 32,11 -5,42 -42,35 -24,-4 -41,2 -46,15 -4,12 -29.6897,26.3873 -23,22 27.206,-17.8427 -25.6852,80.5356 -57,15 10,19 10,31 0,37 -8,6 -22,-9 -31,-31 z"
       id="path840"
       sodipodi:nodetypes="ccssccccscccssscccscsccccscccccccsccssccscccssccscscccsccc" />
    <path
       d="m 6082,8074 c 6,-23 15,-85 21,-139 5,-54 14,-91 19,-82 21,35 -9,262 -36,262 -8,0 -10,-17 -4,-41 z"
       id="path844" />
    <path
       d="m 5992,8068 c -6,-9 -14,-59 -18,-112 -5,-53 -14,-100 -21,-105 -7,-4 -13,-38 -13,-76 0,-53 -5,-66 -21,-60 -26,10 -40,-43 -37,-129 2,-32 -4,-64 -13,-73 -11,-11 -15,23 -11,117 6,157 0,150 -29,-32 -12,-75 -26,-151 -32,-169 -16,-53 20,-41 44,15 13,29 22,38 23,22 3,-59 50,-17 53,46 1,20 14,46 30,57 37,27 58,27 48,-1 -5,-12 -3,-26 4,-30 7,-4 16,6 21,24 5,21 14,27 28,19 15,-9 16,-7 2,10 -13,16 -14,64 -4,179 17,207 17,315 1,315 -8,0 -13,-15 -13,-34 5,-145 -26,-356 -52,-356 -9,0 -10,12 -4,26 15,39 41,364 28,364 -2,0 -9,-7 -14,-17 z m -59,-460 c -9,-24 -11,-24 -25,1 -10,17 -8,36 5,60 l 19,34 5,-35 c 3,-20 1,-47 -4,-60 z m 67,35 c 0,-13 -7,-23 -15,-23 -8,0 -15,10 -15,23 0,12 7,22 15,22 8,0 15,-10 15,-22 z"
       id="path848" />
    <path
       d="m 6215,8040 c 5,-21 10,-60 10,-87 0,-32 6,-46 16,-40 19,12 4,127 -20,150 -10,10 -12,3 -6,-23 z"
       id="path853" />
    <path
       d="m 5700,7995 c 0,-8 11,-15 24,-15 14,0 21,-10 18,-26 -3,-15 -16,-26 -30,-26 -42,-1 -73,-54 -47,-80 19,-19 26,-18 56,10 18,18 41,32 49,32 18,0 110,89 110,106 0,6 -40,11 -90,12 -49,1 -90,-5 -90,-13 z"
       id="path872" />
    <path
       d="m 5561,7986 c -20,-20 7,-52 28,-35 11,10 17,23 12,31 -9,15 -27,17 -40,4 z"
       id="path880" />
    <path
       d="m 5868,7927 c -36,-37 -61,-73 -56,-81 5,-9 2,-30 -8,-47 -11,-22 -12,-37 -1,-48 10,-10 21,6 33,51 17,61 19,63 30,28 9,-31 11,-26 13,26 1,64 31,93 31,31 0,-23 5,-28 16,-17 9,9 14,40 11,70 l -4,54 z"
       id="path881" />
    <path
       d="m 6990,7920 c 0,-11 5,-16 10,-10 6,6 6,14 0,20 -5,6 -10,1 -10,-10 z"
       id="path891" />
    <path
       d="m 5741,7839 c -23,-17 -23,-22 -4,-38 27,-23 53,-8 53,30 0,34 -12,36 -49,8 z"
       id="path918" />
    <path
       d="m 5665,7752 c -5,-18 -5,-37 -1,-41 10,-10 35,30 36,55 0,32 -26,21 -35,-14 z"
       id="path946" />
    <path
       d="m 6090,7754 c 0,-9 7,-12 15,-6 8,5 15,12 15,15 0,4 -7,7 -15,7 -8,0 -15,-7 -15,-16 z"
       id="path952" />
    <path
       d="m 5754,7727 c -7,-10 -8,-23 -3,-28 13,-13 28,6 21,28 -5,15 -9,15 -18,0 z"
       id="path964" />
    <path
       d="m 5666,7665 c 4,-16 10,-30 13,-30 3,0 6,14 6,30 0,17 -6,30 -14,30 -7,0 -10,-13 -5,-30 z"
       id="path984" />
    <path
       d="m 5731,7637 c -20,-37 -21,-62 -1,-62 16,0 38,72 26,84 -5,5 -16,-5 -25,-22 z"
       id="path992" />
    <path
       d="m 5770,7564 c -5,-39 -15,-100 -22,-135 -11,-48 -9,-64 4,-64 11,0 23,32 28,79 6,43 14,104 19,135 6,34 4,56 -5,56 -8,0 -19,-32 -24,-71 z"
       id="path1004" />
    <path
       d="m 5666,7551 c -6,-6 -11,-25 -11,-42 1,-29 2,-29 17,-5 16,29 12,65 -6,47 z"
       id="path1028" />
    <path
       d="m 5720,7542 c -19,-25 -50,-134 -50,-175 0,-18 -7,-32 -15,-32 -8,0 -15,-10 -15,-22 0,-28 44,-31 51,-4 53,204 62,277 29,233 z"
       id="path1029" />
    <path
       d="m 5940,7500 c 0,-11 5,-15 10,-10 6,6 6,15 0,20 -5,6 -10,1 -10,-10 z"
       id="path1043" />
    <path
       d="m 7560,7436 c -20,-27 -42,-55 -48,-63 -7,-9 -39,-50 -72,-92 -33,-43 -80,-85 -104,-96 -25,-10 -49,-29 -53,-43 -5,-13 -32,-51 -61,-82 -28,-32 -53,-63 -54,-68 -1,-5 -3,-38 -5,-72 -3,-72 -44,-176 -90,-228 -22,-26 -25,-38 -12,-43 31,-11 21,-29 -15,-28 -27,1 -37,-11 -53,-66 -11,-37 -26,-79 -34,-94 -28,-51 -18,-75 27,-62 23,6 87,13 142,13 56,1 104,5 107,9 3,3 33,47 66,97 70,104 148,177 253,236 104,58 175,104 209,134 16,15 43,36 59,47 63,46 -45,388 -164,520 -38,41 -57,38 -98,-19 z m 54,-536 c -7614,3659.947 -7614,3659.947 0,0 z"
       id="path1055"
       sodipodi:nodetypes="ccccccscccccccccccccccss" />
    <path
       d="m 6150,7384 c 1,-6 11,-25 23,-41 22,-29 29,-14 13,28 -9,24 -36,34 -36,13 z"
       id="path1091" />
    <path
       d="m 6031,7344 c -8,-20 -20,-38 -26,-41 -52,-23 -142,-190 -91,-169 39,15 175,246 146,246 -9,0 -22,-16 -29,-36 z"
       id="path1096" />
    <path
       d="m 6070,7312 c -14,-29 -25,-62 -25,-73 0,-12 -39,-57 -88,-102 -70,-65 -83,-84 -68,-99 24,-22 57,-24 44,-3 -11,16 -3,18 100,22 38,1 80,11 92,21 24,20 145,35 145,19 -1,-25 -29,-50 -48,-43 -12,4 -38,-1 -58,-13 -20,-11 -72,-20 -115,-20 -78,-1 -78,-1 -61,-38 9,-21 24,-39 33,-40 9,-1 27,-2 39,-3 12,-2 29,-18 38,-37 11,-28 23,-33 55,-27 31,6 47,0 65,-25 22,-31 25,-32 43,-7 25,33 33,33 71,-2 32,-30 18,-54 -23,-38 -13,5 -24,2 -24,-7 0,-27 -43,-20 -70,12 -19,22 -32,26 -60,15 -30,-11 -40,-7 -62,27 -14,23 -42,43 -62,46 -42,4 -76,29 -76,54 0,36 -86,72 -120,51 -17,-11 -27,-28 -23,-38 4,-10 0,-22 -8,-27 -8,-5 -14,-22 -14,-37 0,-96 -106,-200 -223,-219 -66,-10 -96,-51 -130,-171 -19,-67 -110,-121 -296,-176 -18,-5 -26,-23 -26,-58 0,-86 -91,-231 -145,-231 -11,0 -20,-7 -20,-15 0,-8 17,-15 38,-15 21,0 42,-10 47,-22 9,-26 50,-32 50,-8 0,27 63,16 70,-12 14,-54 102,-25 105,35 2,31 -5,53 -19,58 -11,4 -21,22 -21,40 0,19 -12,35 -30,40 -21,5 -30,20 -30,48 0,22 -8,48 -17,57 -9,9 -11,24 -5,34 10,17 66,-64 110,-158 7,-17 25,-40 38,-51 13,-11 24,-32 24,-47 0,-16 14,-35 30,-44 17,-9 30,-29 30,-44 0,-15 14,-31 30,-35 17,-5 30,-19 30,-32 0,-14 13,-24 30,-24 17,0 30,-6 30,-14 0,-21 77,-99 118,-121 26,-13 31,-22 19,-34 -13,-13 -22,-12 -35,1 -10,10 -30,18 -45,18 -33,0 -87,51 -87,82 0,12 -17,27 -37,32 -25,6 -38,20 -38,39 0,17 -13,33 -30,38 -17,4 -30,20 -30,36 0,18 -11,28 -30,28 -16,0 -30,-7 -30,-16 0,-9 -6,-12 -14,-7 -8,5 -37,-5 -64,-22 -55,-33 -87,-38 -87,-13 0,9 10,12 22,8 14,-6 19,-1 13,13 -5,15 -20,19 -45,13 -24,-6 -46,-1 -65,16 -15,14 -35,22 -43,17 -8,-5 -28,8 -44,28 -38,49 -44,48 -36,-5 4,-34 12,-42 34,-36 25,6 28,1 20,-36 -6,-33 0,-51 30,-79 22,-20 39,-49 39,-64 0,-15 10,-27 22,-27 12,0 27,-17 32,-39 8,-31 16,-37 44,-30 22,6 37,1 42,-14 6,-15 30,-22 73,-22 79,-1 118,-20 91,-47 -14,-14 -23,-13 -43,3 -17,14 -28,16 -31,5 -6,-18 -91,-9 -104,11 -4,7 -24,13 -43,13 -33,0 -51,21 -122,138 -9,15 -27,39 -41,54 -14,15 -25,38 -25,51 0,20 -43,51 -53,39 -13,-17 -17,-161 -5,-173 11,-11 11,-25 0,-45 -16,-29 -4,-89 30,-158 7,-14 13,-34 13,-45 0,-11 14,-31 30,-45 17,-14 30,-36 30,-48 0,-13 10,-23 21,-23 12,0 24,-15 27,-34 3,-22 13,-32 31,-29 14,2 30,-6 35,-19 8,-20 16,-18 56,10 26,17 39,23 29,11 -22,-23 -26,-65 -5,-52 8,5 18,1 24,-8 6,-10 17,-6 30,11 11,15 25,22 31,16 14,-14 66,32 66,59 0,11 5,20 12,20 6,0 11,38 11,85 0,57 6,87 20,91 14,5 19,-5 17,-36 -6,-81 -3,-87 30,-57 45,40 47,23 6,-66 -21,-44 -34,-84 -29,-89 20,-20 210,-15 240,6 16,12 45,21 63,21 18,0 52,20 75,44 24,24 83,66 133,92 49,26 106,64 127,83 223,211 371,285 608,306 180,16 210,12 304,-40 35,-19 72,-35 81,-35 33,0 179,-77 187,-99 5,-12 28,-43 53,-69 49,-53 87,-133 87,-185 0,-20 7,-40 16,-45 26,-16 48,-84 60,-187 7,-54 20,-141 29,-195 32,-184 47,-323 47,-430 0,-75 6,-110 19,-115 28,-11 45,-112 24,-138 -19,-23 -12,-57 31,-153 17,-36 29,-98 29,-143 1,-45 10,-91 23,-108 28,-36 28,-64 0,-116 -14,-29 -18,-67 -12,-124 6,-57 3,-83 -9,-83 -10,0 -17,25 -17,59 0,33 -10,89 -21,124 -28,85 -43,190 -45,320 -1,57 -7,112 -13,122 -6,10 -15,64 -19,120 -4,56 -14,153 -22,215 -8,62 -22,170 -31,240 -8,70 -22,171 -29,225 -8,54 -20,146 -28,205 -8,63 -27,129 -45,160 -18,28 -32,66 -32,83 0,18 -20,55 -45,81 -24,27 -58,66 -74,87 -29,39 -167,119 -204,119 -12,0 -28,14 -37,31 -15,27 -29,30 -140,27 -67,-1 -138,2 -157,8 -39,13 -163,-12 -250,-51 -150,-66 -174,-81 -232,-137 -33,-33 -61,-67 -61,-75 0,-7 -17,-20 -37,-28 -21,-8 -38,-21 -38,-30 0,-8 -8,-15 -17,-15 -9,0 -55,-23 -101,-51 -46,-28 -98,-54 -114,-58 -17,-4 17,-6 76,-5 110,3 166,29 239,108 215,237 510,337 739,251 216,-80 423,-330 423,-510 0,-18 7,-37 15,-42 8,-6 15,-40 15,-77 0,-38 7,-81 16,-97 8,-16 19,-74 24,-129 21.8313,-156.8019 -17.8756,-184.9513 50,-327 25,-49 27,-68 14,-116 -10,-38 -10,-66 0,-85 44,-82 58,-332 37,-654 -6,-91 -12,-211 -12,-267 -1,-98 -2,-101 -39,-101 -35,-1 -33,-3 19,-33 72,-42 71,-74 -4,-156 -33,-36 -60,-75 -60,-86 0,-21 215,-130 256,-130 55,0 80,-84 36,-120 -14,-12 -19,-31 -13,-49 8,-26 4,-29 -24,-22 -70,19 -148,-78 -90,-109 15,-8 38,-11 51,-6 18,7 24,0 24,-30 0,-39 -20,-52 -37,-24 -23,36 -53,16 -37,-25 36,-95 164,-254 164,-204 0,32 12,56 38,76 25,20 37,45 37,76 0,25 7,49 15,55 21,13 18,77 -7,162 -14,47 -18,82 -9,98 18,34 23,159 9,247 -8,51 -7,77 5,84 10,6 17,31 16,55 0,24 -4,114 -8,201 -4,87 -6,203 -6,259 1,90 -4,108 -38,150 -38,45 -40,53 -30,161 7,87 4,132 -15,186 -21,64 -22,75 -2,97 16,17 19,32 9,49 -24,44 -54,259 -43,317 5,31 1.3879,46.8576 -3,56 -3.0288,6.3108 -3.5041,28.715 -29,76 -11,20 -21,77 -23,127 -2,49 -14,130 -27,180 -13,49 -24,109 -24,133 0,51 -70,223 -153,375 -13,26 -45,59 -69,75 -24,16 -52,51 -62,78 -10,28 -40,63 -69,81 -28,18 -60,50 -71,72 -13,28 -32,42 -64,45 -24,2 -89,13 -143,24 -82,17 -123,17 -247,0 -82,-12 -160,-17 -175,-13 -15,5 -50,-8 -83,-30 -31,-21 -66,-38 -77,-38 -12,0 -72,-34 -134,-76 -104,-70 -141,-85 -116,-44 6,9 35,33 66,53 30,20 69,47 86,60 18,13 46,26 62,29 17,3 58,23 92,44 34,22 80,39 102,39 22,0 87,24 144,54 74,38 115,51 142,44 23,-6 51,0 75,15 25,17 55,23 88,17 28,-4 51,-2 51,5 0,21 82,32 124,16 28,-10 43,-10 50,1 5,9 32,13 60,10 29,-3 51,1 52,10 1,8 6,2 13,-14 6,-17 19,-31 29,-32 9,-1 24,-3 32,-4 23,-3 18,-77 -5,-77 -11,0 -36,17 -56,38 -30,33 -44,37 -91,29 -31,-5 -69,-2 -85,7 -23,12 -34,10 -48,-7 -14,-16 -38,-20 -96,-13 -61,7 -82,4 -98,-15 -13,-16 -44,-24 -89,-24 -38,0 -79,-6 -90,-14 -38,-23 65,-35 119,-12 49,20 223,-8 237,-38 2,-6 19,-11 36,-11 32,0 251,-203 251,-233 0,-9 20,-31 45,-50 25,-18 45,-43 45,-55 0,-12 20,-50 45,-84 25,-35 45,-75 45,-90 0,-15 14,-54 31,-86 16,-32 36,-94 43,-136 6,-43 20,-86 30,-96 14,-13 16,-12 8,8 -5,14 -2,37 6,52 15,25 16,24 17,-7 1,-88 179,-303 251,-303 32,0 34,4 27,79 -4,43 -9,111 -11,150 -13.0057,65.7318 -16.5369,77.988 -25,128 11.198,57.2374 -44,301 -124,457 -7,14 -13,40 -13,57 0,25 -6,29 -31,21 -32,-10 -190,99 -237,162 -11,15 -36,34 -56,42 -21,7 -36,25 -36,42 0,42 113,-17 143,-74 12,-24 37,-51 56,-61 18,-9 46,-30 61,-46 35,-37 76,-29 82,15 6,42 -43,168 -65,168 -28,0 -127,132 -118,156 11,30 -28,69 -69,69 -17,0 -56,24 -87,54 -120,118 -339,150 -505,73 -25,-11 -71,-25 -102,-29 -42,-7 -56,-16 -56,-38 0,-28 -33,-43 -90,-43 -43,1 -92,-16 -126,-43 -169,-132 -225,-183 -309,-284 -166,-198 -236,-262 -364,-333 -31,-18 -78,-45 -106,-60 -88,-50 -242,-50 -291,1 -31,33 -36,46 -22,60 14,14 23,11 40,-13 22,-32 173,-40 218,-13 8,5 29,13 47,16 26.0239,5.0532 307.333,210.6663 350,264 28,36 73,91 99,122 26,31 40,56 31,56 -27,0 -20,31 18,81 19,26 42,74 52,107 9,33 40,97 69,142 33,52 47,88 38,98 -15,19 -6,83 14,96 7,5 18,32 25,61 6,29 20,67 32,84 12,18 25,52 29,75 4,24 15,51 23,61 9,11 14,51 11,91 -3,46 5,88 21,118 31,58 23,66 -59,66 -53,0 -75,10 -123,53 -32,28 -72,52 -89,52 -36,0 -89,62 -103,119 -21,87 -50,95 -85,23 z m -171,-388 c 5,5 17,-19 26,-53 9,-35 26,-66 38,-71 12,-4 22,-17 22,-27 0,-11 10,-28 23,-38 30,-25 28,-46 -4,-35 -27,9 -103,80 -86,80 5,0 -1,10 -13,22 -12,12 -18,37 -14,60 5,27 1,38 -15,38 -28,0 -43,36 -30,71 8,21 13,19 26,-16 10,-22 22,-36 27,-31 z m -107,-275 c 13,-13 24,-14 37,-2 22,17 81,4 81,-18 0,-21 42,-17 49,5 4,12 41,19 110,20 57,0 116,6 132,13 24,11 28,8 21,-19 -5,-17 -3,-34 4,-36 7,-3 7,-14 0,-25 -11,-18 -18,-17 -46,2 -26,18 -43,20 -77,8 -24,-8 -57,-12 -73,-8 -16,4 -36,-1 -46,-12 -18,-23 -58,-13 -83,21 -12,15 -19,17 -27,4 -15,-24 -62,-21 -84,6 -10,12 -34,22 -52,22 -19,0 -42,9 -51,20 -22,26 79,25 105,-1 z m -211,-109 c 8,0 14,-17 14,-39 0,-21 10,-48 23,-61 12,-12 22,-35 22,-52 0,-16 10,-33 23,-38 38,-14 24,-37 -19,-32 -34,4 -42,13 -46,52 -3,26 -14,56 -26,66 -12,10 -22,33 -22,52 0,20 -7,39 -15,45 -20,12 -19,41 3,92 l 19,43 5,-64 c 2,-35 11,-64 19,-64 z m 94,15 c 14,0 25,-10 25,-21 0,-12 14,-26 30,-32 17,-5 42,-26 55,-46 13,-20 36,-36 51,-36 15,0 35,-13 44,-29 20,-39 100,-36 111,4 9,34 43,17 36,-18 -7,-36 57,-66 93,-44 27,17 75,-3 75,-32 0,-30 -222,-31 -230,0 -5,19 -16,25 -39,19 -19,-5 -43,1 -61,17 -16,15 -36,21 -46,15 -12,-8 -15,-5 -8,6 6,10 1,17 -12,17 -13,0 -34,17 -48,38 -13,20 -33,37 -44,37 -11,0 -25,15 -31,34 -6,18 -23,42 -38,53 -15,11 -28,31 -28,45 1,24 2,23 21,-1 11,-14 31,-26 44,-26 z m -398,-234 c 27,-19 39,-20 56,-6 17,15 30,13 59,-6 20,-13 50,-24 67,-24 16,0 33,-7 38,-15 5,-8 26,-15 46,-15 20,0 56,0 78,-1 23,0 77,4 120,9 86,10 107,-11 42,-41 -21,-9 -38,-22 -38,-29 0,-16 -150,-11 -160,5 -4,7 -26,12 -50,12 -24,0 -47,6 -52,14 -5,8 -18,11 -29,7 -12,-4 -31,7 -44,25 -17,25 -32,30 -60,23 -37,-9 -130,30 -130,55 0,18 20,13 57,-13 z m 54,-134 c 4,-12 18,-22 31,-22 12,0 29,-14 39,-31 9,-18 25,-28 38,-23 14,5 28,-6 39,-29 12,-27 25,-35 45,-29 16,6 30,1 35,-12 22.0637,-60.6751 323.2516,61.1482 199,-55 -37,-35 -61,-38 -103,-15 -20,10 -38,10 -57,0 -22,-11 -34,-10 -47,7 -10,12 -32,22 -47,22 -16,0 -33,11 -38,24 -5,13 -26,30 -46,37 -20,8 -40,28 -45,44 -4,17 -16,30 -26,30 -22,0 -113,84 -113,104 0,20 86,-26 96,-52 z M 7605,3499 c -2,-116 15,-346 28,-380 21,-56 1,-201 -28,-201 -17,0 -21,14 -18,62 3,34 -2,66 -11,72 -9,5 -16,37 -16,70 0,55 -3,59 -34,49 -30,-9 -31,-8 -13,14 11,14 30,25 42,25 16,0 21,15 20,49 -7,126 1,281 15,281 9,0 15,-19 15,-41 z"
       id="path1099"
       sodipodi:nodetypes="csccccscccccscccccccsccccscssscccsssscscccscssccsscscssscsssscscsssscsccccscccccssccccscccscsscsccscssccccccccssssccccscscccccsccscccsccccccsssccsssccccsccscccccscsssccccscsccccccccccsscccccsccscsccccccscccccccscccscsccccccccsccccccsccccscccccccsccccccscccsscscsccccccsccccscccsccccscscccsccccccsccccsscccccccccccscsccsccsccsscsccsscsccccccccsccccscssssscccssccccssscssccccscccccscscsccscccssscscscsscccsccscccccccccssccsscccsccsccscsc" />
    <path
       d="m 5960,7340 c 6,-5 15,-5 20,0 6,6 1,10 -10,10 -11,0 -15,-4 -10,-10 z"
       id="path1106" />
    <path
       d="m 5855,7272 c -67,-45 -71,-69 -34,-192 11,-37 11,-37 13,-3 0,19 21,76 46,126 57,114 54,122 -25,69 z"
       id="path1113" />
    <path
       d="m 6218,7241 c 10,-26 107,-81 120,-68 4,4 -17,24 -49,44 -77,48 -80,49 -71,24 z"
       id="path1129" />
    <path
       d="m 5716,7160 c -37,-47 -39,-70 -8,-95 12,-11 19,-23 15,-27 -4,-4 -21,4 -38,19 -35,32 -92,-19 -150,-134 -37,-73 -81,-128 -104,-128 -24,0 -19,-30 7,-40 13,-5 35,2 50,16 15,13 42,24 60,24 43,0 58,41 24,66 -19,14 -23,28 -15,48 12,26 13,26 19,3 13,-57 96,-13 167,89 29,41 30,51 12,58 -42,16 -41,47 1,39 32,-6 37,-3 29,19 -6,14 -10,38 -10,54 0,40 -22,36 -59,-11 z"
       id="path1151"
       sodipodi:nodetypes="scsccsscscccccccss" />
    <path
       d="m 6360,7161 c 0,-6 12,-19 26,-30 31,-23 184,-28 184,-6 0,8 -34,15 -76,15 -42,0 -89,7 -105,16 -16,8 -29,10 -29,5 z"
       id="path1161" />
    <path
       d="m 5719,6900 c -32,-52 -60,-81 -146,-148 l -45,-35 60,10 c 71,12 105,40 144,118 41,80 31,125 -13,55 z"
       id="path1227" />
    <path
       d="m 7769,6840 c -46,-45 -124,-103 -172,-127 -105,-53 -145,-89 -133,-119 6,-16 0,-20 -20,-14 -21,5 -43,-12 -83,-65 -31,-40 -62,-81 -71,-91 -25,-30 -17,-46 30,-56 24,-6 49,-17 53,-24 10,-17 133,-74 175,-82 17,-3 43,9 63,30 22,24 40,32 53,23 13,-7 41,0 74,19 30,17 90,51 133,75 44,24 86,56 95,72 8,16 29,29 46,29 39,0 33,21 -75,240 l -85,173 z"
       id="path1231"
       sodipodi:nodetypes="ccccccccccccccsccc" />
    <path
       d="m 5292,6738 c -83,-48 -110,-89 -123,-193 -11,-89 3,-108 47,-61 16,19 61,59 99,90 154,128 137,255 -23,164 z"
       id="path1280" />
    <path
       d="m 5111,6632 c -14,-15 -26,-36 -26,-46 0,-11 -9,-16 -20,-11 -41,15 -68,-40 -46,-93 21,-51 2,-65 -27,-19 -20,34 -94,12 -81,-23 5,-11 0,-20 -10,-20 -49,-2 -79,-44 -48,-67 16,-12 39,-19 50,-15 12,4 30,0 41,-10 16,-12 30,-10 60,9 21,14 52,22 68,18 35,-9 36,2 3,38 -23,25 -23,27 6,27 39,0 49,27 49,126 0,43 8,86 18,96 10,10 12,18 4,17 -8,0 -26,-13 -41,-27 z"
       id="path1295" />
    <path
       d="m 5372,6565 c -35,-36 -91,-85 -123,-109 -95,-71 -74,-76 61,-15 52,23 98,77 116,138 20,63 23,64 -54,-14 z"
       id="path1306" />
    <path
       d="m 8000,6446 c -15,-18 -46,-43 -69,-55 -22,-11 -41,-27 -41,-34 0,-6 -12,-13 -26,-13 -39,-2 -161,-80 -164,-105 -1,-12 -2,-29 -3,-39 -1,-9 -15,-20 -32,-24 -50,-13 -52,-52 -5,-98 23,-23 54,-57 69,-75 47,-60 338,14 330,85 -4,37 7,40 44,11 51,-38 -38,-102 -213,-151 -134,-38 -136,-42 -120,-156 17,-119 3,-111 159,-92 252,31 268,56 230,350 -17,132 -23,149 -54,161 -41,16 -45,37 -11,56 28,15 8,107 -33,154 -16,18 -17,27 -3,41 14,14 12,18 -6,18 -14,0 -37,-15 -52,-34 z"
       id="path1339"
       sodipodi:nodetypes="ccscccccccccccccccssc" />
    <path
       d="m 4763,6306 c -17,-21 -39,-48 -49,-59 -42,-44 33,-164 79,-126 16,13 28,9 54,-15 77,-71 184,-5 224,140 l 13,47 -31,-38 c -78,-95 -154,-168 -160,-153 -3,9 34,66 81,125 48,60 71,98 52,85 -38,-27 -115,-22 -184,13 -50,25 -44,26 -79,-19 z"
       id="path1368" />
    <path
       d="m 4335,6197 c 0,-7 8,-17 19,-21 10,-4 35,-41 56,-82 55,-112 196,-152 311,-90 60,33 60,31 -3,97 -29,29 -53,61 -53,71 0,11 -50,18 -153,21 -83,2 -158,7 -165,11 -6,4 -12,1 -12,-7 z"
       id="path1384"
       sodipodi:nodetypes="sccccsccs" />
    <path
       d="m 4198,6183 c -11,-3 -31,-9 -43,-14 -12,-5 -39,-11 -60,-13 -21,-3 -78,-9 -127,-15 -261.3391,-63.5852 -420.06,-38.0979 -758,-96 -45,-8 -123,-18 -172,-23 -49,-5 -87.5353,-22.1568 -100,-25 -234.1899,22.2265 -186.2912,32.3273 -256,48 -16.586,3.729 -44,10 -57,23 -62,56 -385,37 -401,-23 -3,-14 -23,-35 -44,-46 -29,-16 -35,-28 -27,-58 5,-21 -2.7725,-21.9177 -14.3137,-30.6941 C 2126.3036,5900.8895 2085,5885 2085,5865 c 0,-6 39,-19 86,-29 158,-34 182.7511,-40.7217 194.7773,-31 20.0929,11.6738 1.6362,42.6781 -37.7773,57 -19.9377,7.2448 -32.1646,13.9961 -70.6669,31.8432 -13.2352,-1.6383 13.3083,6.6258 55.1335,107.4588 38,32 33.5334,44.698 45.5334,22.698 7,-13 32,-24 57,-24 56,0 133,-45 138,-81 3,-21 19,-29 60,-31 31,-2 65,-11 76,-20 11,-9 35,-13 53,-8 54,14 38,-22 -20,-47 -67,-28 -144.3001,25.7783 -216,80 -37.2277,16.9675 -124.9307,115.1454 -195,85 -18,-11 23,-83 47,-83 8,0 32,-13 53,-30 21,-16 54,-30 73,-30 44,0 27,-49 16,-55 -9,-6 -54.0039,-11.4016 -100,-12 -41.7033,-0.5425 -121.9931,-24.1749 -141,-4 -14.5464,15.4403 -80,56 -128,56 -75,0 -59,-47 29,-87 87,-40 87,-57 0,-60 -36,-2 -90,-19 -130,-43 -37,-22 -92,-48 -122,-58 -30,-10 -57,-27 -61,-38 -4,-13 2,-15 22,-7 16,7 62,21 103,32 40,12 78,29 84,38 6,10 21,13 33,9 21,-8 132,2 304,26 99,14 133,24 162,50 21.5083,8.1958 33.7589,15.0674 52,9 18,-11 59,-10 138,5 101,18 381,26 405,12 5,-4 73,-8 151,-9 78,-2 158,-9 179,-15 21,-7 112,-20 203,-29 90,-9 203,-21 251,-27 37.662,-5.1785 101.0844,-13.0436 146,-18 38.2353,-1.6844 184,-16 197,3 5,8 19,4 32,-9 19,-19 47,-22 141,-15 189,12 215,18 215,52 0,16 10,29 23,29 30,0 28,52 -4,84 -25,25 -25,26 -1,17 31,-12 48,11 51,68 2,23 13,54 25,68 66,75 48,107 -33,56 -131,-83 -391,24 -391,161 0,19 -8,26 -21,21 -12,-5 -20,2 -18,17 1,24 -47,35 -98,21 z M 2993,5917 c 118.7145,-20.3432 130.26,-24.8036 195,-32 74,-6 447,-51 487,-59 21,-4 78,-10 128,-14 49,-4 172,-21 273,-38 101,-17 190,-27 198,-22 8,5 64,-2 124,-14 60,-13 139,-23 176,-23 36,0 60.9977,-4.9977 55,-11 -20.8434,-20.8591 -117.7251,-38.4526 -146,-34 -64.0525,6.3752 -152.6889,11.5089 -243.0992,24.7163 C 4111.0853,5713.534 3967.9065,5742.4634 3795,5761 c -86,9 -162,20 -168,23 -20,13 -181,28 -280,28 -52,-1 -83,3 -68,9 22,7 19,11 -17,18 -24,4 -53,1 -63,-7 -21,-18 -94,-4 -94,18 0,8 -16,15 -35,15 -48,0 -217.5095,97.2613 -211.1344,111.9364 C 2868.4434,5998.9839 2922,5943 2993,5917 Z"
       id="path1386"
       sodipodi:nodetypes="cscccscsccccssccscccsccsccccscscssscccsccccccccccccccccscsssccccscccccccsscsscsccccccsssc" />
    <path
       d="m 6300,6090 c 0,-8 7,-15 15,-15 8,0 15,7 15,15 0,8 -7,15 -15,15 -8,0 -15,-7 -15,-15 z"
       id="path1390" />
    <path
       d="m 4819,6060 c -1,-16 4,-33 12,-38 8,-5 14,9 14,30 0,44 -23,52 -26,8 z"
       id="path1391" />
    <path
       d="m 4822,5946 c -5,-16 -18,-48 -30,-71 -12,-23 -22,-58 -22,-78 0,-19 -6,-39 -14,-44 -7,-4 -10,-22 -5,-39 4,-17 1,-46 -8,-64 -30,-62 -33,-165 -6,-194 18,-21 20,-34 8,-54 -12,-19 -11,-33 5,-55 12,-17 17,-45 12,-68 -9,-42 33,-94 69,-86 11,3 22,-9 26,-25 8,-43 20,-52 74,-56 27,-2 49,-12 49,-22 0,-32 28,-37 74,-13 32,16 42,30 35,48 -6,16 -3,21 8,14 9,-5 30,3 47,20 36,36 8,61 -66,61 -22,0 -38,8 -38,21 0,11 -12,20 -26,19 -14,-2 -33,13 -41,31 -8,19 -24,34 -34,34 -10,0 -20,8 -21,19 -2,10 -3,25 -4,34 -1,8 -13,31 -27,51 -14,20 -22,42 -18,49 4,7 -3,23 -16,36 -12,13 -23,43 -23,66 0,24 -7,48 -16,53 -9,6 -11,21 -5,35 5,13 12,65 13,115 2,49 8,108 15,131 13,47 -1,77 -15,32 z"
       id="path1404"
       sodipodi:nodetypes="csscccccccccsscccsssccsccsscsccccc" />
    <path
       d="m 2408,5820 c 5,-8 12,-15 16,-15 4,0 4,7 -1,15 -6,8 -13,15 -17,15 -4,0 -4,-7 2,-15 z"
       id="path1421" />
    <path
       d="m 6654,5675 c -12,-30 -19,-26 86,-49 104,-22 117,-15 62,36 -49,45 -133,53 -148,13 z"
       id="path1436" />
    <path
       d="m 8111,5691 c -36.7586,-6.2839 -40.7971,-2.81 -67,-13 -14,-5 -68,-14 -120,-19 -89,-8 -113,-21 -79,-42 9,-5 15,-27 14,-49 -1,-40 27,-170 60,-273 9,-29 16,-74 16,-101 0,-50 24,-67 40,-26 4,12 20,22 35,22 14,0 34,9 43,20 10,12 33,18 55,14 35,-7 38,-4 29,31 -6,21 -2,85 7,141 38,232 46.4575,308.5832 -33,295 z"
       id="path1437"
       sodipodi:nodetypes="scccccscsccccs" />
    <path
       d="m 6450,5656 c -12,-8 -17,-19 -10,-26 6,-6 22,1 36,15 27,27 11,34 -26,11 z"
       id="path1440" />
    <path
       d="m 6285,5579 c -75,-59 -209,-202 -195,-207 9,-2 11,-11 6,-20 -6,-9 3,-8 22,2 43,23 151,139 152,163 0,11 8,18 19,17 48,-6 60,0 41,24 -12,14 -13,22 -3,22 9,0 20,-7 25,-15 6,-9 20,-8 38,4 21,13 24,21 11,29 -31,20 -77,12 -116,-19 z"
       id="path1446" />
    <path
       d="m 6534,5576 c -105,-32 -126,-43 -240,-121 -88,-61 -99,-76 -61,-90 29,-12 97,18 135,60 35,39 192,111 238,109 21,-1 24,-4 9,-10 -12,-4 -33,-16 -45,-26 -12,-11 -39,-23 -60,-28 -21,-5 -51,-20 -67,-33 l -30,-24 30,10 c 16,5 60,12 97,16 37,3 98,9 135,13 102,11 270,-159 270,-275 0,-30 10,-81 22,-114 12,-33 22,-98 22,-145 1,-46 8,-103 15,-127 21,-63 29,-251 14,-332 -7,-38 -8,-75 -1,-82 6,-6 7,-74 0,-149 -6,-76 -7,-143 -3,-150 3,-6 -5,-39 -18,-73 -21,-53 -22,-73 -6,-149 10,-49 14,-96 8,-105 -5,-9 -13,-92 -16,-185 -4,-93 -11,-185 -17,-206 -15,-58 -16,-262 -2,-427 16,-193 16,-188 13,-240 -1,-25 1,-91 4,-147 7,-109 -10,-136 -28,-45 -22,112 -34,753 -19,1032 10,188 9,195 -22,222 l -33,28 32,-7 c 38,-9 56,47 34,104 -8,21 -7,64 2,106 19,87 30,557 13,567 -12,8 -2,65 16,90 7,8 5,55 -3,105 -8,49 -14,113 -13,142 1,29 -9,107 -22,173 -14,66 -27,133 -30,150 -6,32 -148,187 -171,187 -8,0 -26,5 -41,10 -22,9 -24,7 -10,-11 28,-36 39,-117 44,-329 2,-111 5,-209 5,-217 3,-54 -14,-226 -29,-308 -10,-54 -21,-226 -23,-382 -3,-157 -8,-329 -12,-383 -3,-53 -1,-138 5,-187 7,-54 3,-151 -8,-240 -11,-89 -15,-198 -9,-267 6,-64 6,-125 0,-135 19.5939,-200.8612 3.8527,-268.323 2,-318 -2.171,-92.3284 13.7868,-78.6646 15,-98 1.1272,-17.9647 -17,-192 1,-226 15,-28 24,-72 45,-220 9,-60 26,-134 39,-165 22,-51 35,-94 82,-259 44,-155 57,-273 34,-308 -26,-39 -8,-60 38,-45 24,8 29,25 30,102 2,151 9,184 45,220 33,33 33,34 6,64 -20,22 -27,50 -24,104 1,40 -2,73 -8,73 -82,0 -121,105 -130,353 -2,66 -11,141 -20,167 -10,30 -10,69 -2,105 -15.9834,102.8597 18.7293,114.4669 -12,218 -17,328 -21,412 -21,432 0,12 4,282 9,600 5,318 12,625 16,683 11,168 9,266 -7,321 -9,28 -10,58 -3,67 23,31 -6,427 -35,484 -29,54 -14,67 22,20 16,-21 35,-81 43,-135 15,-96 36,-308 34,-337 -4,-47 -18,-646 -24,-1020 -14,-851 -11,-980 31,-1262 5,-39 3,-66 -8,-73 -23,-14 -20,-83 5,-131 16,-30 20,-74 14,-162 -8,-119 2,-144 39,-99 9,12 53,36 97,53 73,30 114,73 114,122 0,8 -27,41 -61,75 -87,87 -80,140 27,202 93,53 98,79 27,144 -29,26 -53,62 -54,79 -1,31 -1,31 -14,2 -18,-42 -18,-36 -30,390 -1,24 3,107 9,183 7,102 5,145 -9,162 -15,17 -15,22 0,22 13,0 16,17 9,59 -5,33 -3,61 6,64 8,2 18,42 22,87 5,45 18,129 29,185 12,57 16,121 10,143 -11,44 -11,45 5,133 7,37 5,84 -4,112 -9,27 -18,143 -21,258 -5,174 -10,210 -31,222 -30,16 -34,49 -4,37 21,-8 32,85 13,115 -4,7 -10,44 -13,83 -11,126 -84,326 -134,364 -24,19 -50,43 -56,54 -7,10 -25,19 -40,19 -15,0 -36,10 -46,23 -10,12 -43,23 -73,23 l -54,1 41,16 c 32,11 54,9 93,-9 27,-13 57,-24 66,-24 49,0 167,-145 181,-222 9,-43 23,-93 32,-111 30,-54 60,-355 59,-574 0,-42 9,-137 20,-212 13,-81 17,-164 10,-207 -6,-39 -6,-99 1,-133 7,-40 4,-81 -9,-118 -11,-31 -23,-102 -27,-159 -4,-56 -15,-134 -24,-174 -9,-40 -17,-128 -17,-195 0,-67 -2,-222 -3,-344 -4,-224 0,-248 27,-187 12,27 29,34 86,38 86,6 90,24 19,93 -76,73 -91,132 -60,227 19,57 21,84 10,108 -20,40 -21,127 -2,138 8,5 14,41 14,80 0,39 8,79 18,89 10,10 18,80 20,180 2,89 12,186 22,216 17,45 16,63 -3,111 -17,45 -21,118 -19,314 2,169 -5,290 -19,360 -11,57 -21,125 -22,150 0,24 -7,52 -15,62 -14,18 -17,31 -34,158 -5,38 -22,86 -36,105 -15,19 -32,52 -37,74 -12,51 -112,163 -144,163 -13,0 -50,14 -82,31 -76,41 -158,44 -270,10 z"
       id="path1447"
       sodipodi:nodetypes="cccccccscccccsscccsccccccccccccccccccccsccscsccccccsccsscccccccsccsccccssccccccccccccccsscccccccsccccccccccccccscccccsccccccccsscccccccssccccccccccscc" />
    <path
       d="m 6930,5573 c 10,-13 25,-23 34,-23 8,0 6,10 -4,23 -10,12 -25,22 -34,22 -8,0 -6,-10 4,-22 z"
       id="path1450" />
    <path
       d="m 4615,5569 c -47,-5 -56,-11 -47,-31 6,-14 11,-37 10,-50 0,-14 12,-37 28,-51 16,-15 29,-38 29,-52 0,-32 39,-67 51,-47 5,8 5,24 1,37 -5,12 -2,26 7,32 11,7 9,24 -7,54 -13,26 -19,59 -13,81 5,21 7,37 4,35 -3,-1 -31,-5 -63,-8 z"
       id="path1452" />
    <path
       d="m 4394,5558 c -22,0 1,-191 27,-230 19,-27 34,-57 34,-66 0,-39 140,-146 200,-153 33,-4 66,-18 73,-31 15,-26 102,-32 102,-7 0,27 -33,79 -77,124 -30,30 -41,52 -35,75 7,29 2,33 -39,33 -32,0 -53,9 -64,30 -9,16 -27,46 -40,67 -12,21 -29,64 -37,96 -16,60 -18,62 -144,62 z"
       id="path1456"
       sodipodi:nodetypes="scsccsccscccs" />
    <path
       d="m 4315,5516 c 6,-18 9,-60 8,-91 -6,-85 143,-325 200,-325 20,0 1,37 -37,72 -49,46 -156,248 -135,256 31,11 16,122 -17,122 -26,0 -29,-6 -19,-34 z"
       id="path1460" />
    <path
       d="m 7005,5495 c 21,-23 43,-45 49,-47 6,-3 11,-18 11,-34 0,-16 7,-29 16,-29 9,0 12,-7 7,-15 -5,-8 11,-41 37,-72 40,-51 45,-66 36,-119 -6,-42 -1,-83 17,-130 14,-38 22,-89 18,-117 -4,-27 3,-79 15,-117 12,-37 24,-76 28,-87 3,-11 13,-15 22,-10 10,6 11,15 3,20 -26,18 -37,66 -12,57 12,-5 25,2 29,17 11,37 -1,131 -16,128 -7,-2 -13,34 -12,78 1,48 -9,102 -25,134 -14,29 -21,67 -17,85 6,23 3,29 -10,21 -11,-7 -21,0 -26,20 -5,18 -17,32 -28,32 -25,0 -42,47 -21,61 38,23 -31,112 -113,147 l -45,20 z"
       id="path1462" />
    <path
       d="m 6488,5395 c -25,-8 -89,-29 -143,-48 -54,-18 -126,-41 -161,-51 -370.5772,-24.4725 -546.4946,140.1282 -408,-25 27,-32 5,-64 -62,-91 -84.1216,-34.1289 -99.5837,-43.2502 -161,-78 l -39,-33 c -49,-43 -41.1636,-49.0343 5.8364,-61.0343 103.1383,28.3963 56.6233,-15.2359 19.1636,-61.9657 -7,-39 -5,-45 17,-36 77.4154,48.1977 78.0582,12.2801 38,-28 -21,-26 0.3053,-72.963 32,-52 62.1875,41.1309 77.8502,44.1116 23.7758,-27.3879 C 5628.0603,4773.8991 5651,4764 5732,4793 c 36,13 84,20 107,16 41.2329,-9.5922 123.0795,55.5187 138,81 41.6157,31.5645 67.8315,36.4744 98,55 9.3737,5.7561 10,20 21,20 12,0 43,18 68,39 66,56 217,87 425,88 94,0 86,-9 90,109 5,178 -55,239 -191,194 z"
       id="path1488"
       sodipodi:nodetypes="cccccccccccsscccsscccc" />
    <path
       d="m 6038,5355 c -6,-8 -3,-15 6,-15 9,0 16,7 16,15 0,8 -3,15 -7,15 -3,0 -10,-7 -15,-15 z"
       id="path1505" />
    <path
       d="m 5305,5232 c -47,-74 -47,-105 -1,-142 36,-29 39,-35 15,-35 -15,0 -37,12 -47,26 -11,15 -25,21 -31,15 -6,-6 1,-24 17,-41 32,-36 21,-54 -19,-32 -39,21 -72,-30 -49,-73 21,-39 56,-38 92,4 21,24 32,28 38,14 5,-13 24,-16 57,-10 60,12 83,-14 35,-40 -19,-10 -43,-27 -54,-38 -27,-26 -48,-25 -48,3 0,16 -17,22 -67,22 -36,0 -70,6 -75,14 -8,13 -113,-82 -113,-103 0,-15 116,-72 173,-85 24,-6 59,-20 78,-32 21,-14 49,-18 79,-11 26,5 54,3 65,-6 25,-21 95,-11 127,18 19,17 32,19 48,8 17,-12 18,-17 3,-23 -10,-4 -30,-19 -43,-32 -51,-51 -100,-67 -120,-39 -15,20 -36,23 -100,18 -72,-6 -89,-2 -139,36 -31,23 -68,42 -83,42 -14,0 -46,17 -70,38 -25,20 -51,37 -58,37 -19,0 -110,-89 -110,-107 0,-39 180,-162 251,-173 13,-2 45,-18 70,-37 136,-101 511,-86 561,23 9,21 41,48 70,60 50,21 53,26 51,90 -2,41 7,82 22,105 34,52 33,53 -31,30 -31,-11 -71,-20 -88,-20 -18,-1 -59,-11 -93,-22 -57,-21 -61,-20 -94,15 -19,20 -42,36 -51,36 -18,0 -68,53 -68,72 0,7 -13,40 -30,74 -16,35 -30,80 -30,101 0,29 -8,38 -34,38 -57,1 -75,21 -64,72 13,61 43,86 68,56 24,-29 52,-29 98,1 54,36 46,44 -42,44 -43,0 -93,5 -111,11 -26,10 -38,5 -55,-22 z"
       id="path1525"
       sodipodi:nodetypes="ccscsccccccccsscsccccccsscccscssccccccccccsscsccccscc" />
    <path
       d="m 5385,5137 c 0,-51 111,-62 150,-14 15,18 13,22 -14,22 -18,0 -29,-7 -23,-15 5,-8 2,-15 -6,-15 -8,0 -17,6 -19,13 -11,26 -88,34 -88,9 z"
       id="path1550" />
    <path
       d="m 4560,5072 c 0,-19 54,-31 94,-20 33,9 33,9 -4,19 -54,16 -90,16 -90,1 z"
       id="path1565" />
    <path
       d="m 4860,5062 c 0,-13 7,-20 15,-14 9,5 12,15 7,23 -13,21 -22,17 -22,-9 z"
       id="path1566" />
    <path
       d="m 6519,5044 c -6,-6 -33,-12 -59,-13 -159,-4 -250,-29 -250,-68 0,-16 -14.1768,-19.504 -26,-37 -62.1631,-78.2956 -89.3266,-52.8441 -158,-116 -47,-45 -53,-60 -63,-156 -11,-108 -70,-203 -111,-178 -9,6 -26,-10 -39,-35 -25,-48 -125,-125 -146,-112 -6,4 -12,1 -12,-8 0,-9 -10,-16 -22,-16 -13,0 -23,10 -23,23 0,19 -6,20 -31,6 -25,-13 -49,-11 -109,9 -43,14 -105,25 -140,24 -48,-2 -79,10 -138,49 -42,28 -98,59 -125,68 -50,16 -127,80 -168,139 -27,38 -97,14 -111,-37 -3,-14 -16,-26 -27,-26 -11,0 -45,-17 -75,-38 -31,-21 -72,-42 -91,-47 -19,-4 -35,-14 -35,-22 0,-7 -9,-13 -20,-13 -11,0 -47,-13 -81,-30 -35,-16 -77,-30 -94,-30 -28,0 -104,-30 -247,-98 -25,-12 -102,-45 -171,-73 -195,-82 -450,-260 -529,-371 l -30,-43 31,-40 c 17,-21 31,-47 31,-57 0,-10 29,-45 64,-79 35,-33 80,-81 101,-107 21,-25 45,-46 55,-46 9,-1 21,-11 25,-23 5,-13 25,-23 45,-23 20,0 41,-10 45,-22 5,-13 22,-23 39,-23 16,0 35,-8 42,-19 32,-51 148,-83 337,-95 146,-9 289,-49 362,-100 23,-16 63,-32 90,-35 26,-4 91,-16 145,-29 265,-62 384,-71 593,-47 57,6 138,15 180,18 119,11 130,14 210,50 296,137 448,237 497,328 15,27 31,49 36,49 28,0 104,84 104,115 0,20 9,40 21,44 11,4 33,31 48,59 15,29 33,52 39,52 7,0 12,10 12,21 0,26 48,114 63,114 23,0 45,176 35,285 -5,65 -2,186 9,278 10,91 19,249 19,352 l 2,188 -51,4 c -34,4 -68,-7 -108,-33 -65,-43 -74,-46 -74,-24 0,9 19,24 41,34 23,10 48,26 57,36 8,10 35,21 60,24 42,6 41,7 -9,9 -30,1 -59,-3 -65,-9 z m -93,-113 c 14.3838,-15.4307 16,-30 6,-63 -8,-25 -16,-81 -19,-123 -3,-43 -15,-95 -26,-115 -11,-20 -35,-65 -54,-100 -20,-35 -45,-112 -57,-170 -12,-59 -30,-114 -40,-123 -58.4268,-103.7685 -70.9106,-105.1022 -110,-164 -5,-12 -38,-39 -74,-60 -83.2134,-71.0044 -76.0731,-63.5674 -174,-100 -40,-15 -100,-28 -133,-28 -33,0 -60,-5 -60,-12 0,-7 -19,-11 -41,-11 -23,1 -52,-5 -66,-12 -17,-11 -48,-1 -112,34 -49,26 -125,54 -170,62 -45,7 -85,19 -90,27 -8,13 -62,34 -106,42 -12,2 -24,10 -27,19 -3,9 -15.2499,10.0769 -28,12.6137 -24.1559,4.8063 -20.1131,18.9419 -46.0823,29.0921 -41.3153,16.1483 -112.0912,90.5145 -157.9177,110.2942 -27,11 -52,24 -56,28 -4,5 -26,21 -48,35 -38,24 -147,168 -147,195 0,28 28,6 54,-41 15,-29 36,-53 45,-53 10,0 22,-10 26,-23 5,-12 28,-30 51,-40 23,-10 61,-34 84,-53 23,-19 49,-34 58,-34 8,0 33,-13 55,-28 22,-15 58,-32 81,-38 22,-5 41,-20 41,-32 0,-13 19,-30 41,-39 23,-9 63,-26 89,-39 26,-12 67,-24 90,-26 23,-2 63,-12 88,-22 165,-70 375,-68 455,5 15,13 31,20 36,15 8,-8 98,35 116,55 4,5 18,13 32,18 13,4 45,44 71,88 26,44 64,102 83,128 19,27 39,81 45,120 5,40 23,93 39,118 16,24 30,54 30,66 0,12 9,32 21,45 22,25 61,224 47,238 -4,4 -34,0 -66,-10 -71,-21 -107,-22 -107,-2 0,8 11,15 23,15 40,0 172,48 172,62 0,18 27.7048,2.8989 36,-6 z M 4119,4180 c 8,2 12,-19 9,-46 -9,-77 100,-273 166,-298 14,-6 26,-20 26,-32 0,-28 116,-127 161,-139 19,-4 34,-15 34,-22 0,-20 133.897,-51.1734 154,-63 17.3341,-10.1977 35.0099,-33.5214 61,-46 34,-15 88,-40 120,-56 32,-15 67,-28 79,-28 12,0 21,-5 21,-12 0,-7 29,-27 64,-45 35,-19 100,-57 145,-85 45,-28 88,-48 95,-43 8,5 33,-5 56,-23 23,-17 60,-35 81,-40 22,-6 43,-16 48,-24 4,-7 25,-13 47,-13 21,0 83,-8 138,-17 146,-26 45,-52 -109,-27 -127,20 -142,20 -185,7 -26,-9 -37,-2 -56,34 -13,25 -39,51 -58,56 -18,6 -37,16 -41,22 -12,17 -133,90 -150,90 -8,0 -28,14 -45,30 -16,17 -43,30 -59,30 -16,0 -31,6 -33,14 -170.0679,84.609 -310.2079,145.1618 -463,240 -40,24 -106,80 -145,123 -40,42 -84,90 -99,105 -14,16 -26,34 -26,41 0,7 -13,43 -28,79 -47,111 -52,124 -56,171 -6,64 10,100 24,52 5,-21 17,-36 24,-35 z"
       id="path1575"
       sodipodi:nodetypes="scsccccccssscccccccsccsscscccccsccccscscccccccccssccsssccccccsccccsaccsccccccssccccccssscsccscscsssscsccsccsccscccscscssaccccscscccsscsccccsccccccscsccccsccc" />
    <path
       d="m 4703,3990 c -6,-8 -3,-15 6,-15 9,0 16,7 16,15 0,8 -3,15 -7,15 -3,0 -10,-7 -15,-15 z"
       id="path1576" />
    <path
       d="m 3940,3698 c -5,-12 -2,-26 6,-31 8,-5 14,5 14,22 0,36 -8,40 -20,9 z"
       id="path1577" />
    <path
       d="m 4970,3680 c 6,-5 15,-5 20,0 6,6 1,10 -10,10 -11,0 -15,-4 -10,-10 z"
       id="path1578" />
    <path
       d="m 5010,3675 c 0,-8 10,-15 23,-15 12,0 22,7 22,15 0,8 -10,15 -22,15 -13,0 -23,-7 -23,-15 z"
       id="path1579" />
    <path
       d="m 4938,3638 c 0,-25 4,-34 7,-19 4,15 4,35 0,45 -4,10 -7,-2 -7,-26 z"
       id="path1580" />
    <path
       d="m 6068,3555 c -6,-8 -3,-15 6,-15 9,0 16,7 16,15 0,8 -3,15 -7,15 -3,0 -10,-7 -15,-15 z"
       id="path1581" />
    <path
       d="m 7610,4976 c 5,-27 12,-85 16,-129 4,-44 16,-90 27,-103 11,-14 21,-70 22,-138 4,-165 21,-275 46,-304 13,-14 18,-37 13,-51 -6,-16 2,-38 19,-57 16,-17 40,-68 53,-114 15,-51 39,-94 64,-114 l 40,-31 -35,-50 c -28,-40 -32,-54 -17,-77 9,-15 17,-42 17,-60 0,-18 13,-60 29,-94 16,-34 32,-74 37,-89 24,-75 33,21 31,338 -2,266 -7,360 -23,393 -14,30 -16,46 -5,49 27,9 -0.887,236.4099 -10.6099,274.2314 -4.5794,17.8139 1.6099,78.3055 1.6099,108.7686 v 76 l -45,-9 c -36,-8 -54,0 -101,43 -31,28 -68,52 -81,52 -34,0 -77,70 -65,106 6,21 2,29 -16,29 -20,0 -24,-10 -17,-49 z"
       id="path1591"
       sodipodi:nodetypes="csccccccccscssccccsscccscsc" />
    <path
       d="m 7226,4628 c -10,-88 7,-165 35,-166 14,0 21,-14 19,-41 -2,-27 4,-41 18,-41 12,0 18,-9 13,-21 -4,-11 1,-24 12,-28 14,-5 21,13 24,67 6,97 -7,140 -36,116 -16,-14 -23,-11 -31,11 -6,15 -17,32 -24,37 -9,6 -8,20 2,37 15,27 16,27 18,-1 1,-20 7,-12 16,20 16,56 17,55 -26,68 -29,9 -33,3 -40,-58 z"
       id="path1661"
       sodipodi:nodetypes="ccssccccccccccc" />
    <path
       d="m 7246,4416 c 1,-17 4,-21 9,-9 5,11 4,24 -1,29 -5,5 -8,-4 -8,-20 z"
       id="path1713" />
    <path
       d="m 7230,4263 c 0,-39 9,-85 21,-101 13,-19 19,-68 18,-138 -1,-60 4,-109 11,-109 6,0 8,-7 3,-15 -17,-27 -36,-16 -43,26 -4,23 -5,-33 -2,-123 3,-91 6,-218 7,-282 1,-91 6,-116 23,-116 31,0 27,-24 -11,-75 -38,-53 -27,-73 26,-45 27,15 32,24 19,32 -19,12 3,20 37,15 7,-1 1,18 -11,43 -13,24 -23,46 -22,49 1,2 -7,22 -17,45 -28,61 2,85 48,39 l 35,-35 10,60 c 6,33 8,93 5,135 -2,41 2,107 11,146 9,47 10,78 0,90 -25,31 -52,190 -36,210 40,50 -4,214 -48,177 -18,-15 -25,-12 -38,13 -28,51 -46,35 -46,-41 z"
       id="path1739"
       sodipodi:nodetypes="sccsccccscccccccscccccsccs" />
    <path
       d="m 7778,3763 c 7,-28 13,-101 15,-163 4,-190 6,-207 32,-233 24,-24 24,-29 1,-69 -22,-39 -23,-55 -2,-189 17,-110 18,-169 7,-236 -17,-107 -16,-95 -20,-293 l -3,-157 -57,-54 c -102.1935,-81.1277 -54.2967,-80.4076 -50,-128 8.1278,-28.0051 103,-182 200,-301 28,-35 56,-80 61,-101 10,-37 11,-37 47,-10 35,27 36,28 11,80 -14,29 -25,73 -25,98 0,75 -18,138 -39,138 -11,0 -27,13 -36,30 -9,18 -44,37 -84,47 -38,9 -72,27 -77,38 -12,33 3,37 50,13 24,-13 62,-23 85,-23 31,0 46,-10 56,-37 8,-21 17,-38 21,-38 37.3274,0 -26.8102,402.8469 -5,730 -25.7436,164.365 30.7125,405.9616 -15,534 -10,27 -10,43 1,50 9,5 3,20 -16,38 -17,16 -31,41 -31,55 0,15 -11,41 -24,60 -12,18 -31,62 -41,97 -24,82 -80,103 -62,24 z"
       id="path1808"
       sodipodi:nodetypes="ccscccccccccccssccccscsccccsccc" />
    <path
       d="m 6589,3769 c -5,-15 -32,-59 -59,-99 -28,-41 -50,-85 -50,-100 0,-24 -69,-97 -124,-130 -11,-7 -40,-42 -64,-79 -25,-36 -55,-71 -67,-77 -12,-6 -61,-30 -109,-53 -47,-22 -86,-45 -86,-50 0,-23 -96,-63 -174,-73 -97,-12 -131,-48 -46,-48 29,0 55,-6 57,-13 7,-16 148,-35 148,-20 0,7 42,12 94,13 112,1 292,65 353,124 67,66 108,120 104,139 -2,10 7,18 19,19 30,1 42,143 12,143 -12,1 -9,7 7,16 23,13 25,29 18,101 -6,47 -10,114 -11,149 -1,69 -6,79 -22,38 z"
       id="path1814" />
    <path
       d="m 3331,3699 c -8,-19 -18,-85 -24,-146 -6,-61 -19,-138 -30,-172 -11,-34 -16,-88 -12,-122 l 9,-62 92,-9 c 188,-20 437,3 466,41 10,14 37,18 79,14 82,-8 81,3 -2,32 -36,12 -104,46 -150,76 -47,30 -90,54 -96,54 -6,0 -41,34 -78,76 -37,41 -89,100 -116,130 -27,29 -49,59 -49,65 0,52 -71,70 -89,23 z"
       id="path1821"
       sodipodi:nodetypes="csscccccccsccsc" />
    <path
       d="m 7346,3406 c -7,-26 13,-61 34,-61 6,0 7,20 3,45 -7,51 -26,59 -37,16 z"
       id="path1864" />
    <path
       d="m 7179,3322 c -16,-42 -10,-82 10,-74 11,4 19,24 18,45 -2,47 -15,61 -28,29 z"
       id="path1882" />
    <path
       d="m 3990,3230 c 0,-14 -55,-30 -274,-79 -137,-31 -287,-32 -386,-2 -29,9 -56,16 -61,16 -14,0 -63,-327 -54,-352 5,-13 18,-23 29,-23 11,0 56,-17 100,-38 72,-35 87,-37 171,-24 72,11 102,10 136,-7 71,-34 115,-14 70,32 -43,45 -34,119 19,147 30,16 57,44 62,64 5,20 34,53 65,73 84,55 108,77 108,96 0,9 6,17 14,17 8,0 40,17 70,38 40,27 48,37 27,37 -16,0 -44,4 -62,9 -19,5 -34,3 -34,-4 z"
       id="path1899"
       sodipodi:nodetypes="sccscscccccscsscscs" />
    <path
       d="m 7255,3229 c -21,-5 -25,-15 -18,-39 6,-18 16,-61 22,-96 12,-66 31,-103 31,-60 0,13 24,49 53,80 62,66 69,111 16,111 -20,0 -46,3 -57,6 -11,3 -32,2 -47,-2 z"
       id="path1900" />
    <path
       d="m 4155,3211 c 0,-9 -9,-16 -19,-16 -51,0 -361,-315 -335,-341 6,-6 36,-12 66,-13 31,-2 74,-8 97,-14 46,-12 63,41 19,58 -13,5 -23,26 -23,46 0,20 -8,40 -19,43 -24,9 24,62 90,98 169,93 228,121 236,109 9,-15 -62,-76 -89,-76 -10,0 -37,-17 -59,-37 -22,-21 -47,-38 -54,-38 -8,0 -31,-8 -51,-17 l -38,-17 48,-25 c 30,-16 58,-21 74,-13 39,19 92,14 130,-12 46,-32 60,-14 21,28 -68,73 -53,94 65,94 81,0 114,6 137,26 31,28 109,36 109,11 0,-8 -14,-15 -30,-15 -27,0 -28,-4 -11,-30 10,-17 27,-27 37,-23 23,9 49,-38 49,-88 0,-21 15,-64 32,-95 82,-143 122,-239 121,-296 0,-70 61,-173 102,-173 15,0 34,-19 44,-41 10,-23 46,-62 80,-86 35,-25 104,-75 153,-110 50,-36 143,-91 207,-124 64,-33 116,-64 116,-70 0,-14 -140,-66 -262,-98 -50,-12 -128,-34 -173,-48 -45,-13 -111,-24 -146,-24 -61,0 -64,-2 -64,-45 0,-24 7,-44 15,-44 8,0 15,-10 15,-22 0,-13 -7,-23 -15,-23 -17,0 -17,-95 0,-150 11,-33 12,-34 14,-6 2,47 58,111 98,111 39,0 215,54 239,74 9,7 71,28 137,46 197,54 382,123 373,138 -5,8 -18,11 -29,6 -11,-4 -27,1 -35,11 -11,14 -1,17 43,13 52,-5 60,-2 68,32 11,45 -1,70 -33,70 -20,0 -20,-4 -4,-23 24,-30 -11,-73 -44,-53 -16,10 -17,19 -1,48 17,32 17,34 -6,15 -14,-11 -25,-30 -25,-41 0,-24 -24,-28 -37,-7 -4,7 9,34 29,58 47,56 47,63 0,63 -45,0 -164,58 -226,109 -46,39 -109,76 -133,79 -9,1 -31,3 -51,5 -28,2 -34,8 -27,33 6,24 -16,54 -97,131 -111,106 -187,201 -246,307 -20,35 -47,83 -60,106 -32,56 -20,65 59,43 79,-21 498,-56 654,-54 138,2 588,20 660,27 29,3 64,6 79,7 49.0121,3.5009 130.547,20.7583 182,22 191,14 190,18 18,-230 -122,-177 -381,-390 -665,-549 -82,-45 -98,-66 -52,-66 56,0 86,-91 48,-150 -10,-16 -5,-27 19,-41 47,-25 53,-24 60,15 l 7,34 2,-33 c 2,-27 18,-38 85,-57 45,-13 118,-33 162,-45 106,-30 140,-30 116,-1 -22,25 -9,53 23,53 16,0 20,-9 14,-29 -11,-35 41,-76 99,-76 91,0 238,-162 238,-263 0,-20 6,-39 14,-44 8,-5 15,-27 15,-50 -1,-22 3,-64 8,-93 5,-29 12,-93 16,-142 13,-155 34,-327 52,-432 10,-56 14,-117 9,-137 -11,-43 -97,-89 -124,-67 -42,35 -129,42 -169,14 -21,-14 -50,-30 -65,-36 -14,-5 -26,-16 -26,-25 0,-23 12,-19 66,23 54,41 91,47 108,18 6,-10 5,-14 -1,-8 -11,10 -56,-9 -112,-46 -18,-12 -18,-19 -2,-38 18,-22 1,-24 -173,-25 -305,-2 -940,-15 -981,-20 -21,-3 -44,-7 -52,-9 -41,-9 -83,20 -84,58 l -1,40 -15,-42 c -9,-22 -27,-42 -41,-43 -55,-6 -99,5 -116,29 -17,23 -20,23 -48,-2 -41,-37 -99,-44 -160,-19 -31,13 -56,16 -61,8 -5,-8 -96,-14 -203,-14 -206,0 -240,-14 -159,-67 33,-22 1986,-22 2260,0 37,3 212,6 388,8 306,3 322,4 359,36 42,37 38,94 -6,77 -13,-5 -49,-9 -79,-9 -36,0 -68,-11 -89,-30 -39,-37 -45,-37 -43,-4 2,17 -7,26 -24,24 -14,-1 -109,-7 -210,-13 l -183,-10 41,32 c 22,18 41,41 41,52 0,10 8,26 19,37 42,42 40,506 -3,585 -7,14 -9,44 -5,68 6,29 3,40 -8,33 -9,-5 -20,-3 -25,6 -6,8 1,15 15,15 16,0 21,9 16,26 -4,15 -12,135 -17,267 -10,259 -24,307 -88,307 -20,0 -39,9 -44,21 -5,13 -43,24 -103,30 -125,13 -282,39 -319,54 -17,6 -74,24 -128,38 -54,15 -103,32 -110,38 -15,12 87,101 211,183 62,41 88,67 79,78 -8,10 -8,25 0,38 12,19 17,18 34,-5 21,-29 225,151 328,290 45,59 60,281 26,365 -12,28 -0.3501,42.9544 -2,57 -6.8724,58.5059 6.9769,96.8447 0,172 -10,97 -22,115 -45,74 -26,-47 -104,-112 -158,-132 -27,-9 -46,-25 -42,-35 16,-42 -437,-65 -551,-27 -59,20 -101,23 -196,14 -67,-6 -186,-14 -264,-17 -78,-4 -149,-14 -157,-22 -11,-11 -6,-12 13,-5 21,8 26,6 17,-8 -6,-10 -25,-23 -43,-30 -27,-10 -24,-13 23,-22 30,-5 61,-19 70,-29 26,-31 -215,-20 -247,11 -13,13 -16,24 -7,24 38,0 11,24 -47,42 -44,14 -65,15 -69,4 -3,-9 -16,-16 -29,-16 -13,0 -34,-12 -47,-27 -25,-29 -122,-20 -122,11 0,8 -11,25 -25,38 -17,18 -19,30 -8,41 21,21 6,57 -25,57 -13,0 -54,21 -91,45 -67,46 -117,56 -162,31 -67,-37 -141,-64 -150,-55 -15,15 11,32 91,62 88,33 72,44 -76,59 -73,6 -109,5 -109,-6 z M 6555,450 c 12,-8 16,-15 8,-15 -9,0 -26,7 -38,15 -12,8 -16,15 -7,15 8,0 25,-7 37,-15 z m 28,-85 c 26,5 47,3 47,-5 0,-19 -86,-33 -158,-27 -49,5 -54,8 -29,19 16,7 35,23 42,34 11,17 16,17 32,-5 14,-19 31,-23 66,-16 z"
       id="path1905"
       sodipodi:nodetypes="ssscscscccscsccccccscssccsccscccssccsssssccscccccccsccccsccsccccccccccccccsccccccccscssscsccccccscccccccccccccccsscccccsccccccssccccsccscccccscccccscccccccsccccccsccscscssccsscsssssscsccccc" />
    <path
       d="m 7174,3200 c -47,-19 10,-179 71,-197 18,-5 19,-3 4,13 -11,11 -19,38 -19,60 0,55 -17,134 -28,133 -5,-1 -18,-5 -28,-9 z"
       id="path1908" />
    <path
       d="m 4455,3053 c 0,-12 -10,-23 -22,-23 -34,0 -40,-24 -16,-69 12,-23 18,-58 13,-77 -5,-20 -1,-34 8,-34 10,0 17,-17 17,-38 0,-20 6,-49 13,-63 42,-82 54,-116 50,-139 -2,-15 6,-30 19,-35 13,-5 23,-26 23,-47 0,-22 12,-44 30,-53 17,-9 30,-28 30,-44 0,-15 10,-36 22,-46 13,-10 20,-23 16,-29 -7,-12 18,-55 27,-46 15,16 22,202 9,226 -7,14 -16,62 -19,106 -4,60 -19,103 -60,171 -30,49 -55,98 -55,107 0,10 -17,37 -37,59 -21,22 -38,49 -38,60 0,10 -7,23 -15,29 -8,5 -15,-2 -15,-15 z"
       id="path1926"
       sodipodi:nodetypes="ssccssccsscsccccccscscs" />
    <path
       d="m 4740,3041 c 29,-28 116,-45 128,-25 14,22 10,24 -75,36 -66,9 -73,8 -53,-11 z"
       id="path1930" />
    <path
       d="m 4266,3026 c 5,-10 13,-30 18,-45 12,-34 23,-33 57,6 22,26 23,34 7,45 -32,20 -92,16 -82,-6 z"
       id="path1935" />
    <path
       d="m 4941,3018 c 4,-6 33,-13 64,-15 43,-3 52,1 35,12 -27,17 -110,20 -99,3 z"
       id="path1939" />
    <path
       d="m 3990,2948 c 0,-59 74,-98 102,-53 16,26 14,30 -13,30 -17,0 -44,7 -60,16 -16,8 -29,11 -29,7 z"
       id="path1948" />
    <path
       d="m 4335,2940 c 0,-8 -10,-15 -22,-15 -13,0 -23,-13 -23,-30 0,-16 7,-30 16,-30 11,0 13,-20 7,-58 -6,-36 -4,-63 6,-69 9,-5 16,-20 16,-32 0,-12 18,-48 39,-81 35,-52 39,-69 30,-136 -7,-50 -4,-84 7,-98 10,-11 13,-37 8,-57 -6,-23 0,-42 15,-55 12,-10 21,-37 20,-58 -2,-21 4,-55 12,-76 9,-23 10,-41 1,-46 -8,-5 -9,-28 -2,-53 6,-24 12,-47 13,-51 1,-4 7,-19 14,-34 6,-15 8,-40 4,-56 -5,-17 -3,-30 4,-30 22,0 33,-61 15,-82 -13,-16 -13,-29 0,-53 10,-18 13,-42 9,-55 -5,-12 -2,-35 7,-51 10,-19 10,-38 0,-57 -10,-18 -9,-33 1,-43 12,-12 11,-30 -4,-63 -26,-58 -50,-60 -38,-3 5,23 1,50 -8,59 -13,13 -10,25 10,48 15,16 21,30 14,30 -27,0 -56,63 -34,76 16,10 16,19 -1,49 -14,26 -15,45 -4,64 11,19 9,36 -7,60 -16,25 -18,42 -6,63 12,24 9,34 -18,54 -31,22 -32,24 -7,39 21,13 23,23 10,47 -9,16 -13,38 -9,48 3,9 -4,29 -16,43 -17,20 -18,31 -3,58 14,28 13,36 -8,48 -16,8 -24,29 -21,54 2,22 -4,55 -15,73 -13,25 -14,42 -2,64 13,25 10,39 -14,70 -22,28 -27,45 -16,65 10,19 8,32 -8,45 -12,10 -22,31 -22,46 0,15 -10,37 -23,49 -16,17 -18,32 -8,60 18,48 -8,107 -59,133 -21,10 -42,21 -47,23 -25,14 -96,-154 -72,-169 19,-12 17,-67 -2,-67 -9,0 -12,-13 -7,-29 5,-17 2,-44 -7,-60 -11,-22 -11,-40 0,-60 10,-19 10,-32 0,-38 -10,-7 -10,-19 0,-38 8,-15 11,-38 6,-51 -5,-12 -3,-31 3,-42 7,-11 13,-50 14,-87 0,-37 8,-81 17,-97 12,-20 12,-39 1,-63 -12,-27 -10,-41 9,-63 15,-16 22,-38 16,-53 -5,-13 -1,-34 9,-47 29,-35 52,-442 27,-491 -9,-18 -5,-41 13,-71 32,-54 46,-57 53,-11 2,18 20,40 38,48 55,25 48,144 -11,180 -24,15 -18,53 8,43 24,-9 24,-11 28,82 2,36 -2,68 -9,72 -7,5 -12,26 -12,48 0,63 -8,115 -22,136 -6,11 -3,36 8,56 17,33 16,39 -13,60 -26,18 -30,29 -18,50 11,22 7,33 -19,50 -30,20 -31,27 -14,56 15,24 16,37 3,53 -10,11 -13,33 -8,49 5,17 -1,37 -14,48 -29,24 -29,44 2,78 22,24 22,30 2,53 -25,29 -28,41 -30,139 -3,117 2,152 19,142 9,-6 12,-28 7,-52 -7,-30 -3,-44 14,-50 20,-8 21,-14 5,-40 -16,-25 -16,-33 1,-44 11,-7 17,-22 13,-33 -4,-11 3,-39 14,-62 18,-36 18,-46 -1,-74 -17,-24 -19,-38 -7,-52 9,-10 18,-57 20,-104 2,-49 12,-89 23,-96 11,-7 16,-28 12,-50 -5,-24 0,-41 12,-46 13,-5 20,-30 19,-65 0,-31 3,-80 8,-109 4,-29 12,-90 17,-135 4,-45 12,-103 16,-127 16,-87 8,-251 -11,-239 -7,4 -13,0 -13,-9 0,-9 10,-20 23,-25 25,-9 30,-73 7,-87 -18,-12 -20,-38 -3,-38 7,0 22,17 33,37 37,70 139,71 139,1 0,-56 39,-47 64,14 12,29 37,60 56,69 18,10 49,31 67,48 30,27 34,28 43,6 16,-42 40,-29 28,16 -5,23 -12,79 -15,124 -6,111 -37,347 -46,363 -5,7 -18,71 -29,142 -12,71 -32,141 -44,155 -13,13 -23,35 -23,48 0,13 -11,28 -24,33 -15,6 -22,20 -17,38 6,22 -3,33 -37,45 -36,12 -44,22 -37,47 5,19 -3,42 -21,60 -16,16 -29,43 -29,59 0,17 -6,42 -13,56 -41,80 -50,109 -42,130 5,13 2,27 -7,33 -9,5 -12,23 -8,40 5,17 2,43 -6,58 -16,29 -59,39 -59,13 z"
       id="path1949"
       sodipodi:nodetypes="ssssccscccccccccsccscccccsccscsccscccccccccccccccscccccscccccccccccccccccccccscccccccccccccccccsccccscccccccsccscscccccccccsccccsscccccs" />
    <path
       d="m 7337,2943 c 3,-7 28,-67 56,-135 46,-112 86,-168 66,-92 -5,21 -1,30 13,28 110,-15 69,103 -65,186 -43,26 -78,33 -70,13 z"
       id="path1950" />
    <path
       d="m 7200,2869 c -117,-9 -139,-78 -47,-147 83,-62 68,-168 -28,-191 -87,-22 -87,-156 1,-184 26,-8 30,-18 24,-57 -25,-143 -23,-139 -102,-161 -70,-19 -163,-95 -163,-134 0,-19 59,-73 91,-83 33,-10 42,-46 35,-137 l -6,-72 21,46 c 12,25 33,92 46,150 14,57 35,134 47,171 41,123 60,202 59,251 0,27 10.8289,42.3452 13,49 12.9361,39.6507 14.2476,15.2741 9,82 -1.5681,19.9384 6,40 13,44 17,11 46,168 53,290 3,52 5,93 4,91 -2,-1 -33,-5 -70,-8 z"
       id="path1965"
       sodipodi:nodetypes="ccccccscccccccsscccc" />
    <path
       d="m 3736,2824 c 0,-15 9,-43 21,-64 l 21,-37 14,37 c 15,37 -12,90 -44,90 -7,0 -13,-12 -12,-26 z"
       id="path1967" />
    <path
       d="m 3853,2813 c -5,-9 -6,-56 -1,-105 7,-79 10,-84 18,-43 12,52 -3,172 -17,148 z"
       id="path1977" />
    <path
       d="m 4034,2796 c -19,-22 -52,-22 -104,0 -22,9 -24,-12 -15,-186 2,-45 37,37 37,89 0,28 9,54 19,57 22,7 23,-99 1,-127 -8,-10 -9,-26 -2,-37 7,-11 14,-90 16,-177 2,-87 7,-188 12,-225 4,-37 11,-91 15,-120 3,-29 10,-100 14,-157 4,-58 11,-122 16,-141 17,-71 21,-232 7,-249 -9,-12 -9,-36 0,-68 11,-40 9,-56 -9,-77 -25,-28 -17,-58 16,-58 52,0 98,100 93,201 -3,54 2,105 10,113 10,10 9,22 -3,36 -10,12 -14,31 -9,44 5,13 3,27 -5,32 -8,5 -12,47 -10,95 4,62 -1,93 -18,112 -16,17 -20,39 -14,65 6,22 4,36 -3,31 -8,-4 -12,20 -10,55 2,35 -2,71 -10,81 -8,9 -16,53 -18,98 -3,45 -10,89 -16,99 -6,10 -7,30 -3,44 5,15 2,36 -5,48 -9,14 -9,29 1,41 10,12 10,27 0,46 -9,18 -9,36 1,54 8,15 10,38 5,51 -5,13 3,36 16,51 18,19 20,28 7,28 -13,0 -16,12 -10,38 11,43 5,46 -22,13 z"
       id="path1978" />
    <path
       d="m 3188,2651 c -5,-60 -15,-152 -23,-206 -7,-54 -17,-148 -22,-209 l -9,-111 40,40 c 22,22 46,40 53,40 7,0 13,9 13,21 0,11 10,29 23,39 12,10 22,35 22,55 0,40 35,117 72,159 22,25 22,26 -2,18 -28,-11 -35,15 -8,31 9,6 26,34 37,62 31,73 54,48 42,-45 -5,-48 -20,-87 -38,-102 -15,-14 -28,-39 -28,-56 0,-17 -7,-34 -15,-39 -8,-6 -15,-25 -15,-43 0,-18 -17,-45 -37,-61 -21,-15 -34,-34 -29,-41 4,-7 -10,-21 -31,-30 -21,-10 -38,-27 -38,-38 0,-11 -10,-20 -22,-20 -12,0 -25,-6 -29,-13 -18,-28 -57,-342 -50,-400 5,-42 0,-67 -17,-82 -21,-20 -21,-23 4,-28 35,-6 219,183 219,225 0,16 10,33 23,38 12,4 22,24 22,42 0,19 9,42 21,51 11,10 31,58 45,107 14,49 31,93 39,97 8,5 10,18 6,28 -4,11 0,38 8,61 11,28 11,50 0,70 -8,16 -10,38 -4,48 26,42 42,190 22,210 -9,9 -17,31 -17,47 0,29 1,29 26,4 27,-27 34,-349 8,-391 -6,-9 -9,-32 -6,-50 2,-19 -9,-51 -25,-71 -16,-21 -34,-70 -40,-109 -13,-88 -71,-210 -134,-281 -26,-29 -67,-76 -91,-105 -25,-28 -63,-56 -85,-61 -44,-10 -58,-50 -58,-170 0,-38 -6,-92 -14,-118 -8,-27 -11,-49 -6,-49 22,0 65,34 65,51 0,11 13,37 30,57 16,21 26,41 23,44 -4,4 9,27 29,51 19,25 39,41 42,37 11,-12 -63,-165 -79,-165 -8,0 -15,-20 -15,-45 0,-39 5,-45 43,-45 56,0 133,-27 142,-50 6,-18 100,-34 100,-18 0,5 -7,20 -16,34 -19,31 45,328 69,324 24,-5 25,-46 2,-98 -38,-85 -29,-135 31,-174 77,-50 105,-37 49,23 -45,48 -47,137 -3,205 5,9 11,33 13,54 2,21 7,58 12,83 5,24 13,126 17,225 9,239 25,431 44,532 4,21 12,97 17,169 5,72 14,131 21,131 21,0 30,-102 14,-171 -8,-38 -15,-91 -15,-118 0,-101 -14,-211 -27,-224 -9,-9 -6,-31 8,-60 18,-36 19,-48 4,-57 -11,-7 -14,-20 -7,-31 8,-12 6,-15 -6,-8 -23,15 -28,-81 -13,-234 4,-39 3,-75 -2,-80 -5,-5 -18,-61 -29,-124 -10,-64 -22,-136 -27,-160 -7,-42 -3,-47 61,-73 74,-30 80,-58 25,-120 -25,-28 -121,-26 -159,3 -49,39 -107,26 -61,-13 25,-21 5,-77 -25,-71 -10,2 -20,-9 -24,-25 -5,-23 -1,-26 22,-16 15,7 48,11 73,10 24,-1 58,-2 75,-2 16,-1 45,-9 64,-19 27,-14 41,-14 64,0 16,10 59,18 95,18 37,0 72,7 77,16 6,9 26,13 45,8 18,-5 53,1 77,14 23,12 54,22 68,22 13,0 44,16 67,35 23,19 56,40 73,46 28,12 28,13 -6,26 -36,14 -37,16 -10,118 l 10,38 -36,-38 c -81,-85 -141,-96 -166,-30 -12,33 -24,43 -43,37 -15,-5 -39,5 -58,24 -18,18 -37,26 -42,18 -5,-7 -22,-18 -37,-24 -23,-8 -26,-20 -19,-61 7,-39 4,-53 -14,-60 -38,-14 -54,-11 -49,12 3,11 -14,38 -37,59 -37,35 -49,75 -44,145 8,107 18,167 31,191 8,16 20,96 25,178 5,82 12,179 15,216 8,91 23,373 27,502 l 3,105 -60,10 c -80,13 -82,9 -84,-134 -1,-68 -8,-127 -15,-131 -7,-5 -5,-25 4,-45 12,-27 12,-42 -3,-60 -16,-19 -16,-30 0,-59 16,-31 16,-42 -6,-76 -20,-30 -23,-49 -12,-80 10,-30 9,-52 -6,-81 -14,-27 -17,-50 -7,-75 8,-21 7,-45 -2,-62 -8,-14 -11,-42 -6,-61 5,-19 -1,-61 -12,-94 -11,-32 -18,-76 -13,-97 8,-42 -18,-102 -43,-102 -10,0 -12,15 -5,41 7,23 13,69 15,102 2,33 11,106 21,163 12,77 12,108 -1,123 -12,15 -12,33 -1,62 24,64 37,149 42,289 3,70 6,161 8,203 8,181 -21,237 -88,170 -13,-13 -30,-11 -67,6 -61,30 -193,86 -199,86 -3,0 -9,-49 -15,-109 z"
       id="path1999"
       sodipodi:nodetypes="ccccssscsccccccscscccssccccscscscccccsssccccccsscsscsccssscsccccccscccsscsscccccsccccccsccccccscccsscccccccsccccccccsccccccccccccccsccscscccccscsc" />
    <path
       d="m 3803,2730 c -6,-16 -15,-30 -20,-30 -6,0 -10,-86 -9,-191 1,-105 -4,-231 -12,-279 -7,-47 -17,-145 -21,-217 -18,-313 -33,-434 -62,-478 -14,-22 -16,-35 -4,-42 10,-6 12,-31 6,-64 -10,-51 -8,-53 26,-44 19,5 49,10 66,10 27,1 28,2 3,16 -15,9 -23,22 -19,29 5,7 12,96 17,198 4,101 10,245 14,320 4,74 7,157 7,184 0,32 6,46 16,40 9,-6 15,-38 13,-72 -7,-108 0,-177 16,-167 17,10 19,97 5,214 -5,45 -14,72 -21,62 -16,-26 -48,-1 -35,29 11,24 16,87 26,340 3,66 10,131 17,146 7,15 5,26 -4,26 -9,0 -20,-13 -25,-30 z"
       id="path2000" />
    <path
       d="m 3912,2525 c -2,-32 -2,-82 0,-113 2,-30 -4,-59 -12,-64 -10,-7 -9,-20 2,-41 22,-41 32,-285 16,-372 -7,-40 -5,-140 4,-244 12,-122 12,-175 1,-171 -8,3 -15,18 -15,34 0,16 -6,37 -13,47 -6,11 -8,25 -3,33 5,8 2,18 -7,23 -9,6 -16,-8 -17,-32 -4,-63 -5,-71 -18,-91 -7,-11 -5,-20 4,-21 9,-1 23,-3 31,-5 8,-3 26,-5 39,-6 20,-2 23,-13 16,-58 -8,-55 -7,-55 15,-23 13,19 34,34 46,34 14,0 19,9 13,24 -5,13 -2,35 6,50 7,15 9,32 3,38 -6,6 -12,52 -14,103 -3,88 -7,137 -25,273 -5,32 -9,71 -9,86 0,14 -1,38 -2,52 0,15 0,55 0,89 0,36 -9,70 -21,80 -14,12 -17,27 -9,43 20,38 11,277 -10,284 -12,3 -19,-15 -21,-52 z"
       id="path2052" />
    <path
       d="m 3841,2541 c 1,-17 4,-21 9,-9 5,11 4,24 -1,29 -5,5 -8,-4 -8,-20 z"
       id="path2056" />
    <path
       d="m 3831,2383 c -7,-11 -4,-14 7,-7 17,11 23,24 10,24 -3,0 -11,-8 -17,-17 z"
       id="path2086" />
    <path
       d="m 5670,1942 c 0,-13 7,-20 15,-14 8,5 15,15 15,23 0,8 -7,14 -15,14 -8,0 -15,-11 -15,-23 z"
       id="path2167" />
    <path
       d="m 3864,1719 c 5,-13 16,-24 24,-24 20,0 7,34 -15,42 -11,3 -15,-4 -9,-18 z"
       id="path2215" />
    <path
       d="m 3803,1500 c 5,-8 12,-15 15,-15 4,0 7,7 7,15 0,8 -7,15 -16,15 -9,0 -12,-7 -6,-15 z"
       id="path2260" />
    <path
       d="m 3878,1465 c -17,-13 -22,-24 -12,-30 9,-5 24,1 34,13 26,31 12,41 -22,17 z"
       id="path2265" />
    <path
       d="m 3807,1445 c 11,-5 24,-4 29,1 5,5 -4,8 -20,8 -17,-1 -21,-4 -9,-9 z"
       id="path2279" />
    <path
       d="m 4748,1410 c -6,-8 -26,-15 -46,-15 -43,0 -79,-52 -45,-65 15,-6 22,-30 21,-74 -2,-97 18,-221 35,-221 24,0 6,-165 -19,-181 -33,-21 -59,-17 -59,9 0,12 7,22 16,22 26,0 0,95 -34,121 -24,19 -28,36 -22,95 6,54 1,83 -22,122 -49,83 -114,53 -75,-33 15,-32 13,-42 -10,-63 -15,-13 -37,-48 -48,-76 -12,-29 -47,-78 -78,-109 -31,-31 -74,-84 -95,-118 -22,-34 -83,-104 -136,-156 -53,-52 -96,-102 -96,-111 0,-9 -8,-17 -19,-17 -10,0 -42,-23 -71,-50 -58,-55 -144,-92 -158,-68 -5,8 -21,11 -35,7 -13,-3 -50,-11 -81,-16 -57,-10 -72,-36 -36,-66 14,-11 31,-10 62,6 55,29 71,13 25,-24 -63,-51 -256,-8 -225,50 9,16 12,32 7,37 -15,15 -54,-10 -54,-37 0,-24 -13,-26 -121,-21 -76,3 -128,-1 -138,-11 -13,-13 -6,-17 23,-17 21,0 44,-7 49,-16 6,-10 -11,-14 -48,-13 -32,2 -74,-4 -95,-13 -42,-18 -57,-16 278,-27 892,-27 840,-29 816,35 -10,25 -24,34 -55,33 l -41,-2 37,-12 c 52,-17 46,-18 -163,-23 -218,-5 -225,-3 -224,54 2,52 8,53 57,12 21,-17 29,-26 19,-21 -11,5 -19,2 -19,-8 0,-27 308,26 328,57 5,8 37,19 70,24 46,7 77,27 140,92 44,46 85,83 91,83 6,0 27,14 46,30 19,17 45,30 59,30 13,0 39,4 57,9 21,6 34,3 34,-7 0,-9 -13,-17 -28,-17 -60,0 -52,-146 11,-214 70,-76 158,-84 246,-22 19,13 30,14 38,2 31,-47 123,-56 123,-12 0,12 -6,21 -13,21 -7,0 -37,19 -67,43 -53,42 -54,44 -21,54 31,10 30,12 -16,27 -43,14 -54,12 -82,-17 -28,-28 -29,-32 -7,-32 23,0 24,-4 7,-30 -10,-17 -28,-27 -39,-22 -11,4 -29,1 -39,-8 -33,-27 -59,26 -64,129 -5,86 -2,96 23,96 16,0 57,21 93,47 l 64,46 -10,152 c -10,155 -41,217 -110,219 -36,2 -39,71 -4,106 23,23 30,43 24,68 -5,19 -2,39 6,44 24,15 18,98 -7,98 -12,0 -25,-7 -30,-15 z"
       id="path2287"
       sodipodi:nodetypes="csccscssccccccscsssccccccccsscssccscccccccccscccscscsscccssccccsccccsccccscssc" />
    <path
       d="m 3990,1388 c 0,-13 3,-23 6,-23 3,0 10,10 14,23 5,12 3,22 -5,22 -8,0 -15,-10 -15,-22 z"
       id="path2289" />
    <path
       d="m 4281,1388 c -12,-29 5,-53 36,-53 22,0 23,3 3,16 -17,12 -18,18 -4,24 27,11 24,35 -4,35 -13,0 -27,-10 -31,-22 z"
       id="path2290" />
    <path
       d="m 4478,1335 c 5,-8 12,-15 15,-15 4,0 7,7 7,15 0,8 -7,15 -16,15 -9,0 -12,-7 -6,-15 z"
       id="path2304" />
    <path
       d="m 4200,1305 c 0,-8 7,-15 15,-15 8,0 15,7 15,15 0,8 -7,15 -15,15 -8,0 -15,-7 -15,-15 z"
       id="path2314" />
    <path
       d="m 4265,1260 c -9,-45 -160,-165 -209,-165 -11,0 -27,-13 -36,-30 -17,-32 62,-48 81,-17 5,8 34,18 64,24 31,6 70,25 87,44 17,18 59,52 93,75 75,50 99,92 45,78 -20,-5 -47,1 -64,13 -41,32 -51,28 -61,-22 z"
       id="path2318" />
    <path
       d="m 4470,1290 c 0,-11 5,-15 10,-10 6,6 6,15 0,20 -5,6 -10,1 -10,-10 z"
       id="path2319" />
    <path
       d="m 3585,1264 c 0,-15 71,-48 82,-37 10,10 -39,47 -63,48 -11,0 -19,-5 -19,-11 z"
       id="path2332" />
    <path
       d="m 3075,1186 c 0,-9 -10,-16 -22,-16 -16,0 -23,-17 -25,-56 -4,-156 -29,-231 -98,-295 -52,-49 -331,-189 -376,-189 -18,0 -36,-7 -41,-15 -6,-8 -26,-15 -45,-15 -20,0 -46,-10 -58,-22 -12,-12 -48,-32 -80,-43 -174,-65 -260,-105 -260,-122 0,-44 -154,-55 -178,-12 -12,20 -18,22 -37,6 -18,-15 -25,-14 -35,4 -9,15 -25,20 -47,14 -34,-9 -46,-35 -17,-35 9,0 29,-15 43,-33 21,-25 44,-32 107,-34 314,-8 321,-9 299,-25 -18,-13 -17,-14 8,-6 16,6 33,11 37,12 12,2 579,-20 701,-27 60,-4 109,-2 109,5 0,15 -101,52 -116,43 -6,-4 -38,-2 -71,5 l -60,12 52,3 c 49,3 50,4 15,15 -56,18 -223,18 -195,0 12,-8 44,-15 71,-15 27,0 49,-5 49,-12 0,-16 -300,10 -339,29 -21,11 -49,11 -84,1 -32,-9 -80,-9 -119,-2 -36,7 -91,13 -122,13 -39,1 -56,8 -56,24 0,14 15,22 44,22 24,0 48,7 54,15 5,8 20,15 34,15 15,0 51,17 81,38 31,20 76,37 100,37 25,0 49,7 55,15 5,8 20,15 34,15 45,-1 -40,-60 -86,-60 -22,0 -63,-17 -91,-37 -28,-21 -63,-38 -77,-38 -18,0 -24,-8 -18,-23 7,-20 12,-20 33,-2 45,38 126,70 181,71 29,0 70,10 91,22 47,27 60,27 60,2 0,-24 -95,-55 -169,-55 -29,0 -60,-9 -69,-20 -25,-30 -5,-40 38,-17 32,16 48,16 93,0 37,-13 66,-14 92,-5 135,51 289,57 375,15 45,-22 85,-46 87,-52 3,-6 15,-11 28,-11 12,0 18,7 13,15 -6,8 -3,15 6,15 9,0 16,-7 16,-15 0,-25 35,-16 78,19 40,34 95,195 76,226 -5,8 4,24 19,35 23,16 24,26 10,57 -17,38 6,193 41,271 32,71 34,142 4,142 -16,0 -38,10 -48,23 -10,12 -23,22 -29,22 -17,0 -60,-159 -51,-193 5,-18 2,-32 -6,-32 -23,0 -54,-171 -45,-249 8,-70 -31,-141 -77,-141 -35,0 -32,34 6,69 36,33 39,45 33,115 -4,43 1,112 12,154 10,41 23,102 29,135 6,33 23,81 38,107 l 27,47 -40,10 c -22,5 -51,13 -66,17 -14,5 -26,1 -26,-8 z"
       id="path2358"
       sodipodi:nodetypes="ssccscsscsccccsccccccsccccccssccccsscscsccscsccccssccccccscsscccccscscscscccsccccs" />
    <path
       d="m 4628,1125 c -7,-10 -3,-24 8,-31 28,-17 35,-7 17,24 -10,19 -17,21 -25,7 z"
       id="path2374" />
    <path
       d="m 3435,1037 c 0,-62 322,-88 499,-40 70,19 52,53 -23,43 -35,-5 -90,-10 -123,-11 -33,-1 -76,-10 -95,-21 -28,-16 -39,-16 -66,3 -18,13 -47,19 -66,15 -18,-5 -37,-1 -43,8 -12,19 -83,22 -83,3 z"
       id="path2398" />
    <path
       d="m 2243,571 c -38,-12 -101,-39 -186,-80 -36,-18 -82,-31 -101,-29 -23,2 -36,-5 -36,-20 0,-29 99,-30 116,-2 6,12 56,35 111,53 104,35 162,67 139,80 -7,4 -27,3 -43,-2 z"
       id="path2519" />
    <path
       d="m 2018,541 c -15,-24 13,-28 60,-7 l 45,20 h -48 c -27,1 -52,-5 -57,-13 z"
       id="path2524" />
    <path
       d="m 1838,521 c -7,-15 -3,-36 7,-49 21,-24 60,-30 60,-8 0,7 5,25 10,40 8,21 4,24 -22,18 -17,-5 -34,-1 -38,8 -4,10 -11,7 -17,-9 z"
       id="path2526" />
    <path
       d="m 1970,500 c 5,-6 15,-6 20,0 6,6 1,10 -10,10 -11,0 -15,-4 -10,-10 z"
       id="path2532" />
    <path
       d="m 3766,486 c -45,-12 -85,-25 -89,-29 -17,-17 173,-4 197,14 58,44 20,49 -108,15 z"
       id="path2533" />
    <path
       d="m 4980,467 c 0,-14 61,-51 70,-42 5,5 4,14 -1,22 -10,17 -69,34 -69,20 z"
       id="path2537" />
    <path
       d="m 3585,435 c 0,-19 31,-19 60,0 18,11 13,15 -19,15 -22,0 -41,-7 -41,-15 z"
       id="path2542" />
    <path
       d="m 3533,393 c -9,-24 18,-51 45,-43 8,3 17,15 19,28 6,32 -52,46 -64,15 z"
       id="path2544" />
  </g>
</svg>
