<?xml version="1.0" encoding="UTF-8" standalone="no"?>
<!DOCTYPE svg PUBLIC "-//W3C//DTD SVG 1.1//EN" "http://www.w3.org/Graphics/SVG/1.1/DTD/svg11.dtd">
<svg width="100%" height="100%" viewBox="0 0 2000 2000" version="1.1" xmlns="http://www.w3.org/2000/svg" xmlns:xlink="http://www.w3.org/1999/xlink" xml:space="preserve" xmlns:serif="http://www.serif.com/" style="fill-rule:evenodd;clip-rule:evenodd;stroke-linecap:round;stroke-linejoin:round;stroke-miterlimit:1.5;">
    <g transform="matrix(1.63063,0,0,1.63063,-965.261,-402.525)">
        <path id="Sun" d="M1215.8,282.702C1208.74,282.573 1201.68,282.573 1194.63,282.702C1169.17,342.817 1155.62,405.505 1153.95,470.767C1119.93,475.246 1086.64,484.167 1054.93,497.3C1020.86,441.611 977.778,394.101 925.674,354.769C919.5,358.184 913.389,361.712 907.344,365.352C915.354,430.141 934.957,491.21 966.15,548.558C938.923,569.45 914.552,593.821 893.66,621.048C836.312,589.854 775.243,570.252 710.454,562.242C706.815,568.286 703.286,574.397 699.871,580.571C739.203,632.676 786.714,675.762 842.402,709.83C829.269,741.536 820.348,774.828 815.869,808.853C750.607,810.512 687.919,824.071 627.804,849.528C627.675,856.583 627.675,863.639 627.804,870.694C687.919,896.151 750.607,909.71 815.869,911.369C820.348,945.394 829.269,978.686 842.402,1010.39C786.714,1044.46 739.203,1087.55 699.871,1139.65C703.286,1145.83 706.815,1151.94 710.454,1157.98C775.243,1149.97 836.312,1130.37 893.66,1099.17C914.552,1126.4 938.923,1150.77 966.15,1171.66C934.957,1229.01 915.354,1290.08 907.344,1354.87C913.389,1358.51 919.5,1362.04 925.674,1365.45C977.778,1326.12 1020.86,1278.61 1054.93,1222.92C1086.64,1236.06 1119.93,1244.98 1153.95,1249.45C1155.62,1314.72 1169.17,1377.4 1194.63,1437.52C1201.68,1437.65 1208.74,1437.65 1215.8,1437.52C1241.25,1377.4 1254.81,1314.72 1256.47,1249.45C1290.5,1244.98 1323.79,1236.06 1355.5,1222.92C1389.56,1278.61 1432.65,1326.12 1484.75,1365.45C1490.93,1362.04 1497.04,1358.51 1503.08,1354.87C1495.07,1290.08 1475.47,1229.01 1444.28,1171.66C1471.5,1150.77 1495.87,1126.4 1516.77,1099.17C1574.11,1130.37 1635.18,1149.97 1699.97,1157.98C1703.61,1151.94 1707.14,1145.83 1710.56,1139.65C1671.22,1087.55 1623.71,1044.46 1568.02,1010.39C1581.16,978.686 1590.08,945.394 1594.56,911.369C1659.82,909.71 1722.51,896.151 1782.62,870.694C1782.75,863.639 1782.75,856.583 1782.62,849.528C1722.51,824.071 1659.82,810.512 1594.56,808.853C1590.08,774.828 1581.16,741.536 1568.02,709.83C1623.71,675.762 1671.22,632.676 1710.56,580.571C1707.14,574.397 1703.61,568.286 1699.97,562.242C1635.18,570.252 1574.11,589.854 1516.77,621.048C1495.87,593.821 1471.5,569.45 1444.28,548.558C1475.47,491.21 1495.07,430.141 1503.08,365.352C1497.04,361.712 1490.93,358.184 1484.75,354.769C1432.65,394.101 1389.56,441.611 1355.5,497.3C1323.79,484.167 1290.5,475.246 1256.47,470.767C1254.81,405.505 1241.25,342.817 1215.8,282.702ZM1205.21,594.458C1351.83,594.458 1470.87,713.493 1470.87,860.111C1470.87,1006.73 1351.83,1125.76 1205.21,1125.76C1058.6,1125.76 939.561,1006.73 939.561,860.111C939.561,713.493 1058.6,594.458 1205.21,594.458Z" style="fill:none;stroke:black;stroke-width:45.99px;"/>
    </g>
</svg>
